<?xml version="1.0" encoding="UTF-8" standalone="no"?><!DOCTYPE svg PUBLIC "-//W3C//DTD SVG 1.1//EN" "http://www.w3.org/Graphics/SVG/1.1/DTD/svg11.dtd"><svg width="100%" height="100%" viewBox="0 0 443 421" version="1.1" xmlns="http://www.w3.org/2000/svg" xmlns:xlink="http://www.w3.org/1999/xlink" xml:space="preserve" xmlns:serif="http://www.serif.com/" style="fill-rule:evenodd;clip-rule:evenodd;stroke-linejoin:round;stroke-miterlimit:2;"><path d="M264.979,273.12c0.29,0.088 0.454,-0.609 0.744,-0.521c0.623,0.19 0.944,0.929 1.528,1.216c0.646,0.318 96.648,-0.138 123.757,0.021c3.419,0.019 3.415,-0.095 42.742,-0.002c4.854,0.011 4.836,-0.161 6.687,-0.594c0.248,0.162 0.621,0.027 0.869,0.189c1.046,0.685 0.838,0.992 0.938,19.959c0.022,4.139 -0.022,4.136 0.007,51.745c0.003,5.226 0.038,63.67 -0.256,65.33c-0.385,2.17 -2.267,6.038 -4.883,7.779c-4.69,3.122 -5.134,2.194 -30.363,2.254c-54.212,0.128 -117.991,-0.05 -128.251,-0.079c-1.312,-0.004 -8.492,0.701 -12.697,-6.492c-1.942,-3.321 -1.296,-3.869 -1.493,-31.676c-0.013,-1.89 0.11,-1.879 -0.003,-23.623c-0.196,-37.691 0.183,-37.675 -0.022,-75.374c-0.005,-0.747 -0.058,-5.826 -0.055,-6.739c0.01,-2.734 0.592,-2.889 0.751,-3.396Z" style="fill:#fff;fill-opacity:0;stroke:#fff;stroke-width:8px;"/><path d="M435.994,278.734c2.096,-0.489 2.128,-0.672 2.231,-0.521c0.124,0.185 0.202,0.299 0.509,2.731c0.041,0.326 0.017,47.668 0.016,51.813c-0.002,4.501 -0.024,47.601 -0.154,56.264c-0.253,16.727 0.329,19.06 -0.668,21.235c-3.244,7.074 -10.39,6.508 -16.549,6.469c-9.719,-0.062 -9.709,0.093 -121.494,0.065c-19.661,-0.005 -19.65,0.04 -21.358,0.002c-8.1,-0.178 -10.341,-6.591 -10.529,-8.633c-0.007,-0.08 -0.1,-119.315 -0.035,-123.78c0.064,-4.362 -0.575,-6.091 3.792,-5.994c19.885,0.442 148.074,-0.18 164.239,0.349Z" style="fill:#fff;fill-opacity:0;stroke:#fff;stroke-width:8px;"/><path d="M372.95,330.571c0.444,0.28 0.888,0.562 1.332,0.843c8.641,3.488 7.633,5.445 10.27,7.735c1.746,1.516 4.487,-0.113 7.248,1.9c3.635,2.648 4.33,0.944 6.841,2.3c3.01,1.626 3.67,4.41 6.915,5.385c2.743,0.824 2.651,1.027 4.839,2.849c3.222,2.683 5.739,-1.599 10.891,2.659c2.95,2.438 2.618,3.173 5.647,3.611c2.283,0.33 2.844,1.159 3.61,1.737c1.732,1.714 2.51,1.585 2.572,6.909c0.25,21.444 -0.137,29.132 0.045,33.759c0.076,1.912 0.341,3.328 -1.712,6.718c-1.076,1.779 -4.594,4.827 -8.951,4.814c-5.069,-0.016 -5.043,-0.089 -10.125,-0.091c-40.525,-0.014 -40.511,0.004 -84.372,0.1c-3.601,0.008 -41.837,0.091 -45.008,-0.125c-0.986,-0.067 -7.335,-0.499 -9.54,-7.844c-0.672,-2.24 -0.341,-2.298 -0.536,-30.57c-0.04,-5.84 -0.478,-6.074 2.476,-11.122c2.449,-1.879 2.344,-2.054 5.225,-3.199c0.194,0.054 0.192,0.044 2.431,0.655c3.414,0.93 3.725,1.021 6.426,-1.288c3.827,-3.27 6.264,-0.815 9.092,-3.246c2.112,-1.814 1.978,-2.133 5.8,-3.193c2.754,-0.764 3.626,-1.992 6.695,-1.713c3.505,0.319 3.979,0.357 8.734,-5.286c4.641,-5.509 6.51,-4.022 10.501,-3.362c4.144,0.685 4.037,-6.916 11.246,-4.356c1.5,0.532 2.732,1.813 6.697,0.094c4.372,-1.898 6.095,-7.382 11.264,-7.531c6.806,-0.196 7.849,-2.954 12.169,-0.035c0.103,0.07 0.094,0.067 1.276,0.895Z" style="fill:#fff;stroke:#fff;stroke-width:8px;"/><path d="M326.854,85.591c-0.787,0.307 -1.573,0.614 -2.36,0.921c-0.385,-0.155 -0.313,-0.838 -2.137,-0.864c-7.31,-0.107 -7.292,-0.178 -14.594,-0.627c-8.522,-0.524 -8.521,-0.335 -16.958,-1.63c-8.763,-1.345 -15.394,-5.265 -18.024,-9.314c-4.792,-7.378 -3.386,-13.242 6.247,-28.986c0.509,-0.83 4.926,-6.979 5.027,-7.133c0.964,-1.471 12.842,-17.155 27.137,-26.851c14.434,-9.79 31.549,-12.889 46.024,-10.043c1.005,0.197 7.787,1.531 12.368,3.296c13.815,5.322 24.44,15.808 26.238,17.582c11.828,11.674 18.711,23.755 20.198,26.034c10.16,15.587 7.17,22.421 5.038,25.846c-0.658,1.058 -3.7,5.947 -13.094,8.426c-9.884,2.608 -19.579,3.021 -36.139,3.597c-1.761,0.062 -1.72,0.268 -2.322,0.361c-0.312,-0.049 -0.575,0.38 -0.887,0.332c-1.262,-0.197 -1.084,-0.766 -2.359,-0.828c-4.043,-0.197 -36.25,-0.124 -39.402,-0.117Z" style="fill:#fff;fill-opacity:0;stroke:#fff;stroke-width:8px;"/><path d="M82.47,45.745c4.507,3.027 4.535,2.981 8.621,6.546c-2.651,3.863 -2.923,3.621 -6.338,6.817c-2.128,1.99 -2.263,1.838 -15.517,14.886c-3.386,3.363 -6.772,6.727 -10.159,10.09c-1.135,1.125 -1.135,1.104 -2.263,2.236c-3.937,3.947 -3.891,3.959 -7.872,7.881c-3.974,3.914 -3.809,4.055 -7.934,7.804c-0.222,0.202 -6.418,4.925 -8.934,12.488c-4.115,12.366 6.824,17.342 13.191,8.752c2.965,-4 2.323,-10.755 8.275,-16.57c3.43,-3.351 3.495,-3.252 6.865,-6.637c11.227,-11.275 11.163,-11.306 22.525,-22.48c6.11,-6.008 9.614,-9.046 14.246,-14.95c1.502,-1.914 1.68,-1.722 2.741,-2.648c2.17,1.911 2.243,1.806 4.34,3.781c8.411,7.927 8.38,7.94 16.382,16.275c2.724,2.837 11.995,13.017 13.372,14.638c4.406,5.191 7.423,10.171 7.99,11.107c0.485,0.801 0.44,0.811 1.689,3.496c-0.517,0.549 -2.638,2.802 -6.599,6.724c-17.802,17.632 -17.639,17.774 -35.403,35.464c-9.244,9.205 -11.788,11.124 -12.913,11.972c-14.197,10.708 -33.187,12.115 -49.023,3.341c-1.689,-0.936 -11.693,-6.478 -16.908,-17.23c-2.012,-4.148 -5.886,-10.574 -4.907,-24.864c0.702,-10.256 6.443,-21.139 13.304,-27.909c1.677,-1.654 14.702,-14.506 20.991,-20.644c6.082,-5.935 26.826,-27.042 30.238,-30.366Z" style="fill:#fff;fill-opacity:0;stroke:#fff;stroke-width:8px;"/><path d="M82.47,45.745c2.096,-2.27 31.185,-31.315 36.416,-35.692c15.729,-13.16 38.122,-12.848 52.639,-2.28c16.519,12.024 23.312,33.92 15.566,52.621c-0.427,1.031 -3.135,7.57 -6.929,12.097c-1.218,1.454 -35.804,36.121 -36.472,36.765c-1.249,-2.685 -1.204,-2.695 -1.689,-3.496c-0.568,-0.936 -3.585,-5.915 -7.99,-11.107c-1.377,-1.622 -10.648,-11.801 -13.372,-14.639c-8.002,-8.336 -7.971,-8.348 -16.382,-16.275c-2.097,-1.976 -2.17,-1.871 -4.34,-3.782c-1.94,-1.861 -1.906,-1.858 -3.901,-3.679c-4.162,-3.797 -4.315,-3.577 -4.923,-3.989c-4.086,-3.565 -4.113,-3.519 -8.621,-6.546Z" style="fill:#fff;fill-opacity:0;stroke:#fff;stroke-width:8px;"/><path d="M326.854,85.591c3.152,-0.007 35.359,-0.08 39.402,0.117c1.275,0.062 1.096,0.631 2.359,0.828c0.312,0.049 0.575,-0.38 0.887,-0.332c0.82,9.819 5.608,23.816 6.174,25.937c1.809,6.776 7.456,23.267 7.747,32.735c0.284,9.263 -3.266,15.548 -3.421,15.875c-9.406,19.805 -42.449,23.008 -58.977,9.165c-12.64,-10.586 -10.899,-24.952 -10.577,-28.361c1.273,-13.461 11.701,-39.35 13.757,-53.002c0.096,-0.68 0.192,-1.361 0.289,-2.041c0.787,-0.307 1.573,-0.614 2.36,-0.921Z" style="fill:#fff;fill-opacity:0;stroke:#fff;stroke-width:8px;"/><path d="M325.763,258.195c-15.826,-0.023 -17.646,0.118 -23.63,0.096c-1.981,-0.007 -17.96,-0.068 -24.755,0.032c-10.466,0.154 -10.549,0.02 -11.254,0.583c-0.443,0.353 -0.682,0.922 -1.125,1.276l-1.445,0.532c1.425,-3.872 0.964,-3.965 0.998,-10.081c0.064,-11.563 -0.439,-13.874 2.719,-14.523c2.635,-0.541 2.665,0.001 92.229,-0.155c6.301,-0.011 76.409,-0.134 78.756,-0.11c4.551,0.049 3.62,3.952 3.52,8.036c-0.598,-0.869 -0.579,14.061 -0.796,14.63c-0.242,0.63 -23.925,-0.733 -24.08,-0.384c-13.563,0.176 -43.483,0.081 -47.265,0.069c-0.9,-0.008 -4.008,-0.036 -11.249,0.005c-16.31,0.245 -16.296,-0.084 -32.621,-0.005Z" style="fill:#fff;fill-opacity:0;stroke:#fff;stroke-width:8px;"/><path d="M145.777,279.331c-0.088,0.793 -0.178,1.586 -0.267,2.379c-0.441,0.161 -2.989,1.089 -5.147,2.831c-8.549,6.907 -4.132,23.295 4.334,34.668c6.129,8.233 15.917,12.463 18.982,12.879c4.682,0.637 9.38,0.397 12.695,-3.493c2.287,-2.683 1.716,-3.406 3.073,-3.629c0.411,-0.068 0.836,-0.02 1.248,-0.088c-0.003,0.01 -0.142,1.154 -0.659,2.398c-1.048,2.524 -4.113,5.054 -4.982,5.545c-2.006,1.13 -1.968,1.19 -2.15,1.274c-6.302,2.897 -32.075,18.532 -40.718,20.945c-4.153,1.159 -4.025,1.461 -4.313,1.59c-0.48,-0.258 -0.77,-0.795 -1.249,-1.054c-0.051,-0.028 -3.038,-0.517 -5.533,-1.694c-7.588,-3.578 -9.893,-6.32 -14.429,-14.593c-1.676,-3.056 -2.764,-7.854 -2.773,-13.267c-0.01,-5.618 2.362,-11.851 1.925,-13.511c-0.096,-0.365 -0.384,-0.661 -0.48,-1.025c1.489,-1.416 1.495,-1.402 1.68,-1.624c2.969,-3.545 2.035,-4.417 10.771,-11.78c3.926,-3.309 17.285,-12.239 19.948,-14.251c2.002,-1.512 2.312,-2.75 8.042,-4.499Z" style="fill:#fff;fill-opacity:0;stroke:#fff;stroke-width:8px;"/><path d="M101.745,313.346c-0.317,2.455 0.056,2.551 -1.052,4.765c-2.955,5.899 -3.079,14.581 -0.647,20.135c3.575,8.164 8.247,12.097 9.762,13.6c-0.432,0.325 -0.751,0.785 -1.183,1.11c-0.219,0.165 -0.52,0.189 -0.747,0.342c-0.32,0.215 -1.203,0.995 -1.304,1.084c-0.827,0.731 -0.77,0.807 -1.255,0.968c-0.327,0.109 -0.695,0.046 -1.021,0.157c-0.498,0.17 -0.938,0.481 -1.426,0.678c-1.924,0.776 -2.517,-0.903 -4.521,1.033c-3.574,3.454 -6.271,4.204 -10.86,7.412c-0.736,0.515 -0.763,0.465 -9.605,5.834c-0.821,0.499 -3.566,2.166 -10.97,4.889c-1.735,0.638 -1.735,0.623 -1.885,0.679c-1.936,0.722 -2.265,0.29 -3.458,1.982c-1.86,2.638 -1.227,3.084 -2.054,3.59c-0.712,0.436 -0.855,0.091 -1.518,0.595c-0.756,0.574 -0.41,0.87 -1.169,1.446c-0.512,-0.337 -2.859,-1.701 -4.579,-3.415c-0.266,-0.265 -2.229,-2.221 -2.702,-3.843c-2.19,-7.505 -1.557,-12.59 -1.546,-13.259c0.268,-2.31 0.279,-2.285 0.579,-4.571c0.275,-2.096 1.005,-1.752 1.16,-2.173c0.131,-0.358 -0.071,-0.77 -0.211,-1.125c-0.191,-0.483 -0.577,-0.873 -0.767,-1.356c0.638,-0.67 2.944,-3.619 12.85,-13.016c3.468,-3.29 15.129,-11.815 16.549,-12.756c1.081,-0.716 15.364,-10.331 23.582,-14.786Z" style="fill:#fff;fill-opacity:0;stroke:#fff;stroke-width:8px;"/><path d="M91.09,52.291c0.608,0.412 0.761,0.192 4.923,3.989c1.996,1.821 1.961,1.818 3.901,3.679c-1.061,0.926 -1.239,0.734 -2.741,2.648c-4.632,5.903 -8.137,8.941 -14.246,14.95c-11.362,11.174 -11.298,11.204 -22.525,22.48c-3.37,3.385 -3.435,3.286 -6.865,6.637c-5.951,5.815 -5.31,12.57 -8.275,16.57c-6.366,8.59 -17.306,3.614 -13.191,-8.752c2.517,-7.563 8.712,-12.286 8.934,-12.488c4.126,-3.749 3.96,-3.889 7.934,-7.804c3.981,-3.922 3.935,-3.934 7.872,-7.881c1.129,-1.132 1.128,-1.111 2.263,-2.236c3.386,-3.363 6.772,-6.727 10.159,-10.09c13.254,-13.048 13.389,-12.895 15.517,-14.886c3.415,-3.196 3.687,-2.954 6.338,-6.817Z" style="fill:#fff;fill-opacity:0;stroke:#fff;stroke-width:8px;"/><path d="M48.764,353.903c0.19,0.483 0.577,0.873 0.767,1.356c0.14,0.355 0.342,0.767 0.211,1.125c-0.154,0.421 -0.885,0.078 -1.16,2.173c-0.3,2.286 -0.311,2.261 -0.579,4.571c-0.51,-0.437 -1.165,-0.682 -1.674,-1.119c-0.241,-0.206 -0.226,-0.785 -0.543,-0.781c-0.198,0.003 -1.727,1.296 -2.004,1.868c-0.277,0.573 -0.715,5.781 0.011,8.988c0.362,1.599 1.702,5.257 2.381,6.678c1.196,2.501 1.4,2.363 3.062,4.588l-1.228,1.289c-0.387,0.406 -0.113,0.677 -1.143,1.202c-1.151,0.586 -1.112,0.667 -2.374,0.904c-0.346,0.065 -0.706,0.05 -1.05,0.126c-2.455,0.547 -4.223,4.582 -5.861,5.183c-1.017,0.373 -2.294,-1.346 -4.501,1.24c-0.168,0.197 -2.095,2.454 -2.093,2.465c0.112,0.457 0.864,0.655 0.853,1.125c-0.002,0.062 -1.309,1.468 -2.107,2.04c-1.453,1.039 -1.955,-0.405 -4.12,0.566c-2.375,1.064 -2.488,0.685 -4.94,1.562c-3.699,1.323 -6.28,1.451 -10.826,2.012c-4.964,0.613 -5.545,-0.258 -6.685,1.695c-0.206,0.353 -0.254,0.79 -0.488,1.125c-0.333,0.478 -0.856,0.803 -1.19,1.282c-0.081,-0.163 -0.224,-0.29 -0.305,-0.453c-3.801,-7.681 2.736,-15.777 3.602,-16.849c4.166,-5.159 5.075,-5.697 9.083,-9.047c16.813,-14.053 25.415,-17.552 28.56,-20.89c3.011,-3.195 3.069,-3.117 6.34,-6.023Z" style="fill:#fff;fill-opacity:0;stroke:#fff;stroke-width:8px;"/><path d="M109.807,351.845c9.659,7.865 11.286,5.313 14.567,6.472c0.526,0.186 1.011,0.476 1.537,0.662c-4.586,3.396 -4.879,2.908 -9.587,6.144c-2.156,1.482 -6.899,3.947 -8.689,5.009c-6.505,3.86 -7.664,4.212 -11.475,6.35c-6.694,3.755 -6.85,3.425 -12.502,6.496c-5.927,3.22 -13.231,4.932 -16.602,6.156c-0.755,-0.603 -0.433,-0.874 -1.183,-1.474c-0.074,-0.059 -0.059,-0.047 -1.125,-0.37c-4.454,-1.35 -5.023,-2.03 -7.919,-3.645c0.759,-0.577 0.413,-0.872 1.169,-1.446c0.663,-0.504 0.805,-0.158 1.518,-0.595c0.827,-0.507 0.194,-0.952 2.054,-3.59c1.193,-1.693 1.522,-1.26 3.458,-1.982c0.15,-0.056 0.15,-0.041 1.885,-0.679c7.404,-2.723 10.149,-4.39 10.97,-4.889c8.842,-5.369 8.869,-5.319 9.605,-5.834c4.589,-3.209 7.286,-3.959 10.86,-7.412c2.004,-1.936 2.597,-0.257 4.521,-1.033c0.488,-0.197 0.928,-0.508 1.426,-0.678c0.326,-0.111 0.694,-0.048 1.021,-0.157c0.485,-0.162 0.428,-0.238 1.255,-0.968c0.101,-0.09 0.984,-0.87 1.304,-1.084c0.227,-0.153 0.528,-0.177 0.747,-0.342c0.432,-0.325 0.751,-0.785 1.183,-1.11Z" style="fill:#fff;fill-opacity:0;stroke:#fff;stroke-width:8px;"/><path d="M48.003,363.128c-0.01,0.669 -0.643,5.755 1.546,13.259c0.473,1.623 2.436,3.578 2.702,3.843c1.72,1.714 4.067,3.077 4.579,3.415c2.895,1.615 3.465,2.295 7.919,3.645c1.066,0.323 1.051,0.311 1.125,0.37c0.751,0.6 0.428,0.871 1.183,1.474c-1.674,1.139 -1.646,1.15 -3.384,2.199c-9.657,5.592 -9.558,5.734 -10.424,6.169c-10.585,5.322 -10.218,5.997 -20.988,10.927c-4.224,1.933 -13.524,6.595 -20.412,5.506c-7.701,-1.217 -9.253,-5.076 -10.367,-6.77c0.333,-0.478 0.856,-0.803 1.19,-1.282c0.234,-0.335 0.282,-0.772 0.488,-1.125c1.141,-1.954 1.721,-1.082 6.685,-1.695c4.546,-0.561 7.127,-0.689 10.826,-2.012c2.452,-0.877 2.565,-0.498 4.94,-1.562c2.165,-0.971 2.668,0.474 4.12,-0.566c0.799,-0.571 2.106,-1.978 2.107,-2.04c0.011,-0.47 -0.741,-0.668 -0.853,-1.125c-0.003,-0.011 1.925,-2.268 2.093,-2.465c2.207,-2.585 3.484,-0.866 4.501,-1.24c1.638,-0.601 3.406,-4.637 5.861,-5.183c0.344,-0.076 0.703,-0.061 1.05,-0.126c1.262,-0.237 1.223,-0.317 2.374,-0.904c1.031,-0.525 0.757,-0.795 1.143,-1.202c1.482,-0.094 2.207,1.328 2.444,-0.155c0.088,-0.547 -1.303,-0.587 -1.216,-1.135c-1.662,-2.224 -1.866,-2.087 -3.062,-4.588c-0.679,-1.421 -2.019,-5.079 -2.381,-6.678c-0.727,-3.207 -0.289,-8.415 -0.011,-8.988c0.277,-0.573 1.807,-1.866 2.004,-1.868c0.317,-0.004 0.302,0.575 0.543,0.781c0.51,0.437 1.165,0.682 1.674,1.119Z" style="fill:#fff;fill-opacity:0;stroke:#fff;stroke-width:8px;"/><path d="M264.917,269.855c0.339,-0.077 0.665,0.361 1.004,0.284c0.656,-0.151 0.437,-0.965 3.597,-0.997c11.246,-0.115 74.644,-0.102 84.361,-0.084c76.664,0.142 76.655,-0.034 83.321,0.032c1.814,0.018 1.752,0.255 3.45,0.856c-0.045,0.566 0.309,0.503 0.264,1.067c-0.043,0.553 -0.308,0.443 -0.429,1.006c-0.085,0.398 0.037,0.823 -0.049,1.222c-1.851,0.433 -1.833,0.605 -6.687,0.594c-39.327,-0.092 -39.322,0.022 -42.742,0.002c-27.109,-0.159 -123.112,0.297 -123.757,-0.021c-0.584,-0.287 -0.905,-1.026 -1.528,-1.216c-0.289,-0.089 -0.454,0.609 -0.744,0.521c0.047,-0.55 0.144,-0.519 0.191,-1.061c0.109,-1.292 -0.244,-2.125 -0.253,-2.204Z" style="fill:#fff;fill-opacity:0;stroke:#fff;stroke-width:8px;"/><path d="M150.606,279.406c0.206,0.022 0.405,-0.14 0.611,-0.118c1.741,0.185 4.167,0.923 4.522,1.031c3.076,0.937 6.755,4.288 9.065,6.22c-3.973,3.328 -4.106,3.151 -4.446,3.446c-0.2,0.174 -0.29,0.453 -0.49,0.627c-0.09,-0.089 -0.278,0.004 -0.368,-0.083c-0.264,-0.259 -0.459,-1.022 -2.199,-2.051c-7.749,-4.581 -15.078,-0.351 -15.341,9.409c-0.159,5.882 2.354,10.117 4.853,14.671c0.682,1.243 1.144,1.538 2.338,3.299c2.126,3.137 10.078,9.651 15.757,9.872c2.713,0.105 7.203,0.014 8.977,-6.468c1.662,-6.071 -1.859,-12.303 -2.413,-13.431c-1.009,-2.053 -1.932,-2.129 -2.201,-2.425c2.435,-2.719 3.304,-4.881 3.623,-5.465c0.533,0.616 0.671,0.453 1.205,1.07c0.476,0.55 0.308,0.636 0.762,1.201c0.337,0.418 0.775,0.746 1.129,1.15c5.706,6.502 5.501,15.354 5.468,16.765c-0.079,3.43 0.123,3.453 -0.762,6.752c-0.412,0.067 -0.837,0.02 -1.248,0.088c-1.357,0.223 -0.786,0.947 -3.073,3.629c-3.315,3.89 -8.014,4.13 -12.695,3.493c-3.066,-0.416 -12.853,-4.646 -18.982,-12.879c-8.467,-11.373 -12.883,-27.761 -4.334,-34.668c2.157,-1.742 4.706,-2.671 5.147,-2.831c0.287,-0.058 3.512,-0.717 3.571,-0.759c0.593,-0.416 0.933,-1.129 1.526,-1.545Z" style="fill:#fff;fill-opacity:0;stroke:#fff;stroke-width:8px;"/><path d="M164.465,252.775c2.172,-5.9 4.078,-7.794 11.867,-12.977c0.27,-0.179 3.031,-2.017 3.891,-1.134c1.679,1.723 -3.305,2.072 -5.219,7.471c-3.784,10.676 6.837,15.74 11.382,18.932c1.673,1.175 1.616,1.216 3.244,2.438c0.853,0.64 10.728,10.15 1.845,22.179c-0.952,1.29 -7.005,6.512 -7.577,6.832c-1.579,0.883 -1.99,-0.802 -1.975,-0.859c0.106,-0.43 1.252,-1.861 1.373,-2.013c0.313,-0.391 1.931,-2.41 2.192,-5.857c0.769,-10.148 -9.332,-15.106 -12.827,-17.907c-9.095,-7.288 -9.264,-10.959 -8.195,-17.104Z" style="fill:#fff;fill-opacity:0;stroke:#fff;stroke-width:8px;"/><path d="M159.868,290.612c-1.552,1.826 -1.562,1.799 -2.684,3.943c-0.665,2.799 -0.838,2.8 -0.496,5.654c0.219,1.834 0.358,1.802 1.361,3.367c-0.398,0.154 -0.124,-0.586 -0.505,-0.438c-0.2,0.077 -1.485,0.575 -2.23,1.496c-0.217,0.269 0.279,0.68 0.2,1.016c-0.042,0.175 -0.337,0.131 -0.493,0.22c-0.532,0.308 -1.209,0.47 -1.567,0.97c-0.343,0.48 0.352,2.149 0.425,2.323c1.887,4.522 3.503,4.803 5.284,5.695c3.406,1.708 3.739,1.724 5.719,1.954c4.317,0.503 3.372,-1.789 3.506,-3.158c-0.451,-1.169 -0.381,-1.18 -0.892,-2.309c-1.843,-4.074 -1.663,-4.123 -1.849,-4.462c-0.191,-0.35 -0.548,-0.59 -0.739,-0.939c0.275,-0.132 1.789,-0.543 4.361,-2.54c0.269,0.296 1.192,0.373 2.201,2.425c0.554,1.128 4.075,7.36 2.413,13.431c-1.774,6.482 -6.263,6.573 -8.977,6.468c-5.678,-0.221 -13.631,-6.735 -15.757,-9.872c-1.193,-1.761 -1.656,-2.056 -2.338,-3.299c-2.5,-4.555 -5.012,-8.789 -4.853,-14.671c0.263,-9.76 7.592,-13.99 15.341,-9.409c1.74,1.028 1.935,1.792 2.199,2.051c0.09,0.088 0.278,-0.005 0.368,0.083Z" style="fill:#fff;fill-opacity:0;stroke:#fff;stroke-width:8px;"/><path d="M322.187,154.316c-2.288,-2.507 -2.141,-3.675 -3.673,-6.883c-1.606,-3.361 -1.266,-7.875 5.411,-29.247c0.097,-0.312 0.967,-3.097 1.785,-3.676c0.317,-0.225 0.813,-0.194 1.165,-0.03c0.475,0.222 0.698,0.794 1.125,1.099c0.335,0.238 0.781,0.281 1.125,0.505c1.31,0.853 0.79,1.282 1.457,2.665c2.053,4.248 -0.072,13.724 -0.332,14.887c-1.132,5.046 -1.534,4.933 -2.548,9.991c-0.863,4.3 -3.998,6.907 -4.28,7.886c-0.107,0.371 0.122,0.381 -0.034,0.737c-0.49,1.112 -0.717,0.968 -1.2,2.067Z" style="fill:#fff;fill-opacity:0;stroke:#fff;stroke-width:8px;"/><path d="M164.804,286.539c4.721,-3.821 4.323,-4.66 4.877,-5.25c0.153,-0.163 1.715,-1.83 2.602,1.02c3.213,10.32 0.857,14.744 0.61,15.632c-0.319,0.584 -1.189,2.747 -3.623,5.465c-2.572,1.997 -4.086,2.408 -4.361,2.54c-0.786,0.157 -1.571,0.314 -2.357,0.469c-1.93,-0.454 -2.129,-0.139 -3.496,-1.572c-0.564,-0.59 -0.499,-0.626 -1.008,-1.267c-1.004,-1.565 -1.142,-1.533 -1.361,-3.368c-0.341,-2.854 -0.168,-2.855 0.496,-5.654c1.123,-2.144 1.133,-2.117 2.684,-3.943c0.2,-0.174 0.29,-0.453 0.49,-0.627c0.34,-0.296 0.472,-0.118 4.446,-3.446Z" style="fill:#fff;fill-opacity:0;stroke:#fff;stroke-width:8px;"/><path d="M105.335,311.485c0.096,0.364 0.384,0.66 0.48,1.025c0.437,1.66 -1.935,7.893 -1.925,13.511c0.009,5.413 1.097,10.21 2.773,13.267c4.536,8.273 6.841,11.015 14.429,14.593c2.495,1.176 5.482,1.666 5.533,1.694c0.479,0.258 0.769,0.795 1.249,1.054c-0.828,1.309 -0.829,1.297 -1.962,2.351c-0.526,-0.186 -1.012,-0.476 -1.537,-0.662c-3.281,-1.159 -4.909,1.393 -14.567,-6.472c-1.515,-1.503 -6.188,-5.436 -9.762,-13.6c-2.431,-5.554 -2.308,-14.235 0.647,-20.135c1.108,-2.214 0.736,-2.31 1.052,-4.765c1.828,-0.893 1.818,-0.855 3.59,-1.861Z" style="fill:#fff;fill-opacity:0;stroke:#fff;stroke-width:8px;"/><path d="M158.048,303.577c0.509,0.641 0.444,0.677 1.008,1.267c1.367,1.433 1.566,1.118 3.496,1.572c-0.232,0.264 -0.821,-0.31 -1.052,-0.047c-0.137,0.156 -1.03,1.169 0.334,2.574c0.128,0.131 0.249,-0.051 1.758,1.469c0.311,0.314 1.027,1.119 1.115,1.218c0.154,0.174 0.248,0.404 0.43,0.548c0.248,0.197 0.652,0.193 0.835,0.451c0.175,0.246 -0.085,0.678 0.122,0.897c0.264,0.279 0.946,0.318 1.032,0.322c0.655,0.038 0.607,-0.229 1.263,-0.192c-0.134,1.37 0.811,3.662 -3.506,3.158c-1.98,-0.23 -2.313,-0.247 -5.719,-1.954c-1.781,-0.892 -3.397,-1.173 -5.284,-5.696c-0.073,-0.174 -0.769,-1.843 -0.425,-2.323c0.358,-0.5 1.035,-0.662 1.567,-0.97c0.156,-0.089 0.451,-0.046 0.493,-0.22c0.079,-0.336 -0.416,-0.748 -0.2,-1.016c0.745,-0.922 2.03,-1.419 2.23,-1.496c0.381,-0.148 0.107,0.592 0.505,0.438Z" style="fill:#fff;fill-opacity:0;stroke:#fff;stroke-width:8px;"/><path d="M169.39,287.755c-0.175,0.732 0.206,0.827 -0.587,2.46c-1.441,2.966 -3.879,3.588 -4.855,2.917c-1.669,-1.147 -1.03,-1.684 0.405,-3.121c1.608,-1.613 1.498,-1.68 1.646,-1.807c1.402,-1.199 1.588,-0.717 3.391,-0.448Z" style="fill:#fff;fill-opacity:0;stroke:#fff;stroke-width:8px;"/><path d="M308.887,330c1.797,0.442 2.361,-0.091 2.901,1.672c0.306,1 -1.825,3.387 -4.351,1.496c-0.176,-0.132 -1.826,-1.367 -0.783,-2.632c0.232,-0.281 0.862,-0.433 0.943,-0.452c0.641,-0.154 0.643,0.07 1.291,-0.085Z" style="fill:#fff;fill-opacity:0;stroke:#fff;stroke-width:8px;"/><path d="M124.475,312.633c0.438,-0.181 0.749,-0.6 1.187,-0.782c0.1,-0.041 0.8,-0.332 1.326,0.252c1.107,1.228 -1.307,3.019 -2.397,4.097c-3.011,2.976 -2.766,-0.136 -2.74,-0.356c0.037,-0.329 0.091,-0.788 2.624,-3.212Z" style="fill:#fff;fill-opacity:0;stroke:#fff;stroke-width:8px;"/><path d="M395.558,320.252c0.226,0.203 0.572,0.24 0.798,0.444c1.712,1.542 -0.995,4.448 -3.317,2.123c-1.283,-1.285 -0.556,-2.928 1.353,-2.854c0.4,0.016 0.766,0.271 1.166,0.287Z" style="fill:#fff;fill-opacity:0;stroke:#fff;stroke-width:8px;"/><path d="M422.264,342.106c0.172,0.194 0.386,0.347 0.559,0.541c1.275,1.425 -0.866,3.824 -3.032,1.765c-1.397,-1.329 -0.376,-3.067 1.591,-2.68c0.314,0.061 0.569,0.313 0.882,0.375Z" style="fill:#fff;fill-opacity:0;stroke:#fff;stroke-width:8px;"/><path d="M295.405,366.408c-0.545,-0.002 -0.504,-0.183 -1.033,-0.184c-0.618,-0.002 -0.576,0.198 -1.211,0.177c-1.552,-0.05 -1.283,-1.943 0.036,-2.025c0.407,-0.025 0.812,0.162 1.22,0.123c0.325,-0.031 0.601,-0.279 0.924,-0.327c2.459,-0.371 2.215,1.981 1.126,2.236c-0.344,0.081 -0.717,-0.082 -1.062,-0.001Z" style="fill:#fff;fill-opacity:0;stroke:#fff;stroke-width:8px;"/><path d="M341.112,363.988c-0.242,0.089 -0.329,0.434 -0.572,0.523c-2.68,0.987 -2.787,-1.15 -2.8,-1.4c-0.108,-2.162 3.766,-2.329 3.644,0.018c-0.016,0.3 -0.257,0.559 -0.273,0.86Z" style="fill:#fff;fill-opacity:0;stroke:#fff;stroke-width:8px;"/><path d="M145.777,279.331c1.676,-0.314 1.652,-0.536 3.302,-0.375c1.184,0.116 1.115,0.329 1.527,0.45c-0.593,0.416 -0.933,1.129 -1.526,1.545c-0.059,0.042 -3.284,0.701 -3.571,0.759c0.089,-0.793 0.179,-1.586 0.267,-2.379Z" style="fill:#fff;fill-opacity:0;stroke:#fff;stroke-width:8px;"/><path d="M337.064,385.999c0.451,0.13 0.461,-0.057 0.929,0.078c0.043,0.013 0.177,0.051 0.463,0.323c1.518,1.441 -1.037,3.193 -2.33,2.316c-0.137,-0.093 -1.27,-0.862 -0.379,-2.039c0.298,-0.394 1.019,-0.284 1.317,-0.677Z" style="fill:#fff;fill-opacity:0;stroke:#fff;stroke-width:8px;"/><path d="M298.68,342.106c-0.401,-0.402 -0.597,-0.027 -0.993,-0.424c-0.066,-0.066 -0.506,-0.507 -0.485,-1.058c0.044,-1.196 2.646,-1.622 3.525,0.069c0.541,1.042 -0.581,1.343 -0.7,1.374c-0.433,0.116 -0.913,-0.077 -1.346,0.039Z" style="fill:#fff;fill-opacity:0;stroke:#fff;stroke-width:8px;"/><path d="M387.587,367.567c-0.365,0.011 -0.675,0.334 -1.04,0.345c-1.654,0.051 -1.535,-1.307 -1.521,-1.476c0.125,-1.43 4.018,-1.744 3.519,-0.039c0,0 -0.881,1.076 -0.958,1.17Z" style="fill:#fff;fill-opacity:0;stroke:#fff;stroke-width:8px;"/><path d="M382.452,389.929c-0.002,-0.047 -0.925,-1.18 0.391,-2.332c0.756,-0.661 0.943,-1.025 1.61,-0.266c0.804,0.916 0.991,1.133 0.161,2.018c-0.815,0.868 -0.98,0.48 -2.162,0.579Z" style="fill:#fff;fill-opacity:0;stroke:#fff;stroke-width:8px;"/><path d="M306.605,374.266c1.358,0.488 2.201,0.107 1.785,1.34c-0.434,1.285 -0.536,1.53 -1.875,1.342c-0.76,-0.107 -1.397,-1.596 -0.747,-2.272c0.215,-0.224 0.622,-0.186 0.837,-0.41Z" style="fill:#fff;fill-opacity:0;stroke:#fff;stroke-width:8px;"/><path d="M351.25,389.997c0.385,-0.363 0.107,-0.523 0.483,-0.878c0.058,-0.055 0.445,-0.42 0.897,-0.426c0.168,-0.002 1.585,-0.021 1.465,1.494c-0.025,0.32 -0.907,1.211 -1.305,1.254c-0.382,0.041 -0.745,-0.274 -1.127,-0.233l-0.413,-1.211Z" style="fill:#fff;fill-opacity:0;stroke:#fff;stroke-width:8px;"/><path d="M332.639,316.832c-0.034,0.458 0.589,0.804 0.556,1.262c-0.112,1.526 -1.659,1.234 -1.831,1.201c-1.156,-0.218 -1.062,-2.451 -0.135,-2.627c0.465,-0.088 0.945,0.251 1.41,0.163Z" style="fill:#fff;fill-opacity:0;stroke:#fff;stroke-width:8px;"/><path d="M316.073,358.49c0.106,-0.435 -0.154,-0.424 -0.046,-0.867c0.011,-0.047 0.038,-0.156 0.37,-0.472c1.097,-1.039 3.095,0.561 1.865,1.931c-0.959,1.069 -1.189,0.411 -2.189,-0.592Z" style="fill:#fff;fill-opacity:0;stroke:#fff;stroke-width:8px;"/><path d="M311.338,387.248c0.559,0.239 0.616,-0.108 1.178,0.132c0.064,0.027 0.43,0.183 0.598,0.627c0.362,0.953 -0.962,2.168 -1.796,1.722c-1.437,-0.768 -1.07,-1.274 0.02,-2.481Z" style="fill:#fff;fill-opacity:0;stroke:#fff;stroke-width:8px;"/><path d="M414.169,333.808c-0.361,0.212 -0.415,0.777 -0.778,0.989c-0.868,0.509 -2.987,-1.306 -1.148,-2.315c0.771,-0.423 0.974,-0.612 1.427,0.125c0.226,0.37 0.273,0.831 0.5,1.2Z" style="fill:#fff;fill-opacity:0;stroke:#fff;stroke-width:8px;"/><path d="M361.816,353.895c-0.923,-0.868 -0.977,-0.824 -0.991,-0.932c-0.016,-0.122 -0.145,-1.131 0.748,-1.344c1.914,-0.458 2.402,0.958 1.706,1.722c-0.649,0.713 -1.444,0.547 -1.464,0.555Z" style="fill:#fff;fill-opacity:0;stroke:#fff;stroke-width:8px;"/><path d="M335.794,350.696c0.741,0.051 0.592,-0.517 1.333,-0.467c0.082,0.006 0.515,0.035 0.83,0.614c0.472,0.866 -0.248,1.529 -0.345,1.619c-0.803,0.74 -2.004,-0.002 -2.07,-0.469c-0.062,-0.436 0.313,-0.861 0.252,-1.297Z" style="fill:#fff;fill-opacity:0;stroke:#fff;stroke-width:8px;"/><path d="M370.515,317.065c-0.133,0.274 0.002,0.63 -0.13,0.904c-0.073,0.152 -0.662,1.369 -2.07,0.359c-0.346,-0.248 -0.469,-0.791 -0.405,-1.212c0.212,-1.395 1.507,-1.065 1.658,-1.027c0.106,0.027 0.07,0.072 0.948,0.976Z" style="fill:#fff;fill-opacity:0;stroke:#fff;stroke-width:8px;"/><path d="M360.484,299.137c-0.014,0.359 0.384,0.654 0.371,1.014c-0.032,0.872 -1.509,1.445 -2.186,0.758c-0.094,-0.095 -0.787,-0.799 -0.058,-1.675c0.369,-0.443 0.812,-0.466 0.893,-0.47c0.549,-0.029 0.426,0.401 0.98,0.373Z" style="fill:#fff;fill-opacity:0;stroke:#fff;stroke-width:8px;"/><path d="M348.12,310.279c-0.16,0.284 0.023,0.683 -0.136,0.967c-0.146,0.26 -0.415,0.515 -0.712,0.539c-0.178,0.015 -1.717,0.14 -1.553,-1.608c0.065,-0.695 1.448,-1.161 1.995,-0.629c0.199,0.194 0.205,0.536 0.405,0.731Z" style="fill:#fff;fill-opacity:0;stroke:#fff;stroke-width:8px;"/><path d="M367.434,351.84c0.074,-0.578 -0.298,-0.529 -0.223,-1.114c0.009,-0.069 0.055,-0.435 0.46,-0.742c0.619,-0.469 1.878,0.058 1.959,0.773c0.017,0.153 0.169,1.503 -1.13,1.553c-0.388,0.015 -0.677,-0.486 -1.066,-0.471Z" style="fill:#fff;fill-opacity:0;stroke:#fff;stroke-width:8px;"/><path d="M382.315,319.171c-0.298,0.301 0.026,0.94 -0.272,1.241c-0.289,0.291 -0.798,0.298 -1.206,0.25c-1.051,-0.124 -1.291,-2.282 0.037,-2.452c0.483,-0.061 0.829,0.17 0.889,0.21c0.401,0.268 0.149,0.483 0.551,0.751Z" style="fill:#fff;fill-opacity:0;stroke:#fff;stroke-width:8px;"/><path d="M359.234,365.344c0.394,-0.294 0.11,-0.508 0.505,-0.803c0.058,-0.044 0.364,-0.271 0.883,-0.232c0.902,0.067 1.321,1.41 0.859,1.993c-0.094,0.119 -0.897,1.132 -1.889,0.131c-0.269,-0.271 -0.09,-0.818 -0.359,-1.089Z" style="fill:#fff;fill-opacity:0;stroke:#fff;stroke-width:8px;"/><path d="M364.843,312.535c-0.141,0.253 -0.025,0.598 -0.166,0.851c-0.073,0.131 -0.645,1.156 -1.844,0.332c-1.609,-1.109 -0.038,-2.044 0.108,-2.131c0.506,-0.301 0.918,-0.096 0.989,-0.061c0.637,0.318 0.278,0.692 0.913,1.009Z" style="fill:#fff;fill-opacity:0;stroke:#fff;stroke-width:8px;"/><path d="M53.659,386.721c-0.174,-1.125 -1.493,0.042 -1.667,-1.085c-0.025,-0.162 -0.231,-1.492 1.248,-1.622c0.652,-0.057 1.284,0.745 1.384,1.391c0.083,0.538 -1.049,0.779 -0.965,1.317Z" style="fill:#fff;fill-opacity:0;stroke:#fff;stroke-width:8px;"/><path d="M49.237,383.35c-0.088,0.547 1.303,0.587 1.216,1.135c-0.237,1.483 -0.962,0.061 -2.444,0.155l1.228,-1.289Z" style="fill:#fff;fill-opacity:0;stroke:#fff;stroke-width:8px;"/><path d="M343.588,357.205c-0.863,0.338 -0.089,1.085 -0.967,1.429c-0.086,0.033 -0.926,0.363 -0.905,-0.695c0,0 1.722,-0.675 1.871,-0.734Z" style="fill:#fff;fill-opacity:0;stroke:#fff;stroke-width:8px;"/></svg>