<?xml version="1.0" encoding="UTF-8" standalone="no"?><!DOCTYPE svg PUBLIC "-//W3C//DTD SVG 1.1//EN" "http://www.w3.org/Graphics/SVG/1.1/DTD/svg11.dtd"><svg width="100%" height="100%" viewBox="0 0 752 735" version="1.1" xmlns="http://www.w3.org/2000/svg" xmlns:xlink="http://www.w3.org/1999/xlink" xml:space="preserve" xmlns:serif="http://www.serif.com/" style="fill-rule:evenodd;clip-rule:evenodd;stroke-linejoin:round;stroke-miterlimit:2;"><rect id="Artboard1" x="0" y="0" width="752" height="735" style="fill:none;"/><g><path d="M426.723,428.731c0.386,0.118 0.606,-0.812 0.992,-0.694c0.83,0.254 1.258,1.239 2.037,1.622c0.861,0.423 128.864,-0.185 165.01,0.027c4.559,0.027 4.554,-0.126 56.989,-0.002c6.472,0.015 6.449,-0.215 8.916,-0.793c0.331,0.217 0.829,0.036 1.16,0.253c1.394,0.913 1.117,1.323 1.251,26.612c0.029,5.519 -0.029,5.514 0.009,68.994c0.004,6.969 0.051,84.893 -0.342,87.107c-0.513,2.894 -3.022,8.05 -6.511,10.372c-6.253,4.162 -6.846,2.926 -40.484,3.005c-72.282,0.171 -157.321,-0.067 -171.002,-0.105c-1.749,-0.005 -11.323,0.935 -16.929,-8.656c-2.589,-4.429 -1.728,-5.158 -1.99,-42.234c-0.018,-2.52 0.147,-2.505 -0.004,-31.497c-0.261,-50.255 0.244,-50.233 -0.03,-100.498c-0.005,-0.997 -0.078,-7.768 -0.074,-8.985c0.013,-3.646 0.789,-3.853 1.002,-4.528Z" style="fill:#8ca2ba;"/><path d="M654.742,436.217c2.795,-0.652 2.837,-0.897 2.974,-0.694c0.166,0.245 0.27,0.399 0.679,3.64c0.055,0.436 0.023,63.557 0.021,69.084c-0.003,6.002 -0.032,63.469 -0.206,75.019c-0.336,22.302 0.44,25.414 -0.89,28.313c-4.325,9.432 -13.853,8.677 -22.065,8.625c-12.959,-0.082 -12.945,0.123 -161.993,0.087c-26.215,-0.006 -26.199,0.053 -28.477,0.003c-10.799,-0.238 -13.787,-8.789 -14.039,-11.511c-0.01,-0.107 -0.133,-159.087 -0.047,-165.04c0.085,-5.815 -0.766,-8.121 5.055,-7.991c26.515,0.59 197.432,-0.24 218.986,0.466Z" style="fill:#586e8a;"/><path d="M570.684,505.332c0.592,0.375 1.184,0.75 1.776,1.125c11.521,4.65 10.178,7.26 13.694,10.313c2.327,2.021 5.982,-0.15 9.663,2.533c4.846,3.531 5.773,1.258 9.122,3.068c4.013,2.168 4.894,5.88 9.22,7.179c3.658,1.099 3.535,1.369 6.453,3.799c4.296,3.577 7.652,-2.132 14.522,3.545c3.933,3.251 3.49,4.231 7.529,4.815c3.044,0.44 3.792,1.545 4.814,2.316c2.31,2.286 3.345,2.113 3.428,9.212c0.335,28.592 -0.182,38.842 0.061,45.012c0.1,2.55 0.454,4.437 -2.282,8.957c-1.436,2.372 -6.126,6.436 -11.934,6.418c-6.759,-0.021 -6.724,-0.119 -13.5,-0.122c-54.034,-0.018 -54.015,0.005 -112.496,0.133c-4.801,0.01 -55.783,0.122 -60.012,-0.166c-1.314,-0.09 -9.78,-0.666 -12.719,-10.458c-0.896,-2.986 -0.455,-3.064 -0.714,-40.761c-0.054,-7.787 -0.637,-8.098 3.301,-14.829c3.265,-2.505 3.125,-2.738 6.967,-4.266c0.259,0.073 0.255,0.059 3.242,0.873c4.553,1.24 4.967,1.361 8.568,-1.717c5.102,-4.361 8.352,-1.087 12.123,-4.328c2.816,-2.419 2.637,-2.843 7.734,-4.258c3.672,-1.019 4.834,-2.656 8.925,-2.283c4.673,0.425 5.305,0.476 11.645,-7.048c6.188,-7.345 8.68,-5.362 14.001,-4.483c5.526,0.913 5.383,-9.221 14.995,-5.808c2,0.71 3.644,2.418 8.929,0.125c5.829,-2.529 8.126,-9.842 15.018,-10.041c9.075,-0.261 10.465,-3.938 16.225,-0.046c0.138,0.093 0.126,0.088 1.702,1.192Z" style="fill:#dddbdb;"/><path d="M509.222,178.691c-1.049,0.41 -2.098,0.819 -3.147,1.229c-0.514,-0.208 -0.417,-1.117 -2.848,-1.153c-9.747,-0.142 -9.722,-0.236 -19.459,-0.836c-11.362,-0.699 -11.361,-0.447 -22.611,-2.174c-11.684,-1.793 -20.527,-7.02 -24.033,-12.418c-6.389,-9.837 -4.515,-17.655 8.33,-38.648c0.677,-1.107 6.568,-9.305 6.702,-9.51c1.286,-1.962 17.122,-22.875 36.182,-35.802c19.246,-13.054 42.067,-17.186 61.366,-13.391c1.34,0.263 10.383,2.041 16.491,4.394c18.42,7.096 32.586,21.077 34.984,23.444c15.771,15.565 24.948,31.672 26.929,34.712c13.547,20.782 9.56,29.894 6.719,34.46c-0.877,1.41 -4.935,7.931 -17.459,11.235c-13.179,3.477 -26.105,4.027 -48.185,4.796c-2.348,0.082 -2.293,0.357 -3.096,0.482c-0.416,-0.065 -0.767,0.507 -1.183,0.442c-1.682,-0.263 -1.444,-1.022 -3.145,-1.105c-5.391,-0.263 -48.333,-0.165 -52.536,-0.156Z" style="fill:#dfd9d0;"/><path d="M183.377,125.564c6.01,4.036 6.046,3.975 11.494,8.728c-3.535,5.151 -3.897,4.829 -8.451,9.089c-2.837,2.654 -3.017,2.451 -20.689,19.848c-4.515,4.484 -9.03,8.969 -13.545,13.453c-1.513,1.5 -1.513,1.472 -3.017,2.981c-5.249,5.263 -5.189,5.28 -10.497,10.508c-5.299,5.219 -5.078,5.407 -10.579,10.405c-0.296,0.269 -8.557,6.566 -11.912,16.65c-5.486,16.488 9.099,23.122 17.588,11.669c3.953,-5.333 3.098,-14.34 11.033,-22.093c4.573,-4.468 4.659,-4.336 9.153,-8.849c14.969,-15.034 14.884,-15.075 30.033,-29.973c8.146,-8.011 12.819,-12.062 18.995,-19.933c2.002,-2.552 2.239,-2.296 3.655,-3.53c2.895,2.547 2.992,2.408 5.787,5.042c11.215,10.569 11.174,10.585 21.843,21.699c3.632,3.783 15.994,17.356 17.83,19.519c5.874,6.921 9.898,13.561 10.654,14.809c0.647,1.068 0.587,1.081 2.252,4.661c-0.689,0.732 -3.518,3.736 -8.798,8.965c-23.737,23.509 -23.519,23.699 -47.204,47.285c-12.325,12.273 -15.717,14.832 -17.217,15.963c-18.929,14.277 -44.25,16.153 -65.365,4.455c-2.252,-1.248 -15.59,-8.637 -22.544,-22.973c-2.682,-5.53 -7.847,-14.098 -6.543,-33.152c0.936,-13.675 8.591,-28.187 17.739,-37.212c2.235,-2.206 19.602,-19.341 27.988,-27.524c8.11,-7.914 35.768,-36.056 40.318,-40.488Z" style="fill:#cc417d;"/><path d="M183.377,125.564c2.795,-3.027 41.58,-41.753 48.555,-47.589c20.972,-17.547 50.829,-17.131 70.186,-3.04c22.024,16.032 31.082,45.227 20.754,70.161c-0.569,1.374 -4.181,10.094 -9.238,16.13c-1.624,1.939 -47.739,48.161 -48.63,49.02c-1.665,-3.58 -1.605,-3.593 -2.252,-4.661c-0.756,-1.248 -4.78,-7.888 -10.654,-14.809c-1.836,-2.163 -14.198,-15.736 -17.83,-19.519c-10.669,-11.114 -10.628,-11.131 -21.843,-21.699c-2.795,-2.634 -2.892,-2.495 -5.787,-5.042c-2.587,-2.482 -2.541,-2.477 -5.202,-4.905c-5.55,-5.064 -5.754,-4.771 -6.564,-5.32c-5.449,-4.752 -5.484,-4.692 -11.494,-8.728Z" style="fill:#dee0e6;"/><path d="M509.222,178.691c4.203,-0.01 47.145,-0.107 52.536,0.156c1.7,0.083 1.462,0.842 3.145,1.105c0.416,0.065 0.767,-0.507 1.183,-0.442c1.094,13.092 7.477,31.754 8.232,34.583c2.412,9.035 9.941,31.022 10.328,43.647c0.379,12.351 -4.354,20.731 -4.561,21.166c-12.542,26.405 -56.598,30.676 -78.636,12.22c-16.854,-14.115 -14.532,-33.271 -14.102,-37.815c1.697,-17.948 15.601,-52.466 18.342,-70.669c0.128,-0.907 0.256,-1.815 0.385,-2.722c1.049,-0.41 2.098,-0.819 3.147,-1.229Z" style="fill:#d2ccc3;"/><path d="M507.768,408.83c-21.102,-0.031 -23.528,0.158 -31.507,0.128c-2.64,-0.01 -23.945,-0.09 -33.005,0.043c-13.956,0.205 -14.066,0.026 -15.005,0.776c-0.591,0.472 -0.909,1.23 -1.5,1.701l-1.927,0.709c1.9,-5.163 1.285,-5.286 1.33,-13.441c0.085,-15.417 -0.586,-18.499 3.625,-19.364c3.514,-0.722 3.554,0.002 122.972,-0.207c8.401,-0.015 101.879,-0.179 105.007,-0.145c6.068,0.064 4.826,5.269 4.694,10.715c-0.798,-1.159 -1.45,-0.354 -2.235,-1.494c-0.653,-0.949 0.275,-1.181 -0.294,-2.182c-0.187,-0.328 -0.724,-0.241 -1.101,-0.271c-0.482,-0.038 -0.968,0.119 -1.449,0.069c-0.445,-0.046 -0.851,-0.306 -1.296,-0.352c-0.703,-0.062 -0.63,-0.289 -1.312,-0.35c-0.121,-0.011 -1.156,-0.103 -1.514,0.099c-0.812,0.457 -1.234,1.447 -2.045,1.904c-0.914,-1.727 -0.83,-1.785 -0.982,-1.856c-0.108,-0.05 -0.122,-0.057 -1.48,-0.151c-2.272,-0.157 -2.855,0.479 -3.253,0.546c-0.443,-0.024 -0.793,-0.471 -1.236,-0.496c0,0 -3.044,0.53 -3.308,0.576c-0.896,-0.167 -1.792,-0.335 -2.688,-0.502c-0.994,-0.022 -1.988,-0.044 -2.981,-0.066c-0.631,-0.117 -1.072,-0.783 -1.704,-0.9c0,0 -2.967,1.088 -3.226,1.182c0.261,8.115 0.292,8.093 0.156,16.205c-0.043,2.579 0.176,3.787 -0.114,4.544c-0.322,0.841 -0.548,0.68 -0.913,1.5c-0.214,0.481 0.013,0.522 -0.194,0.989c-18.084,0.234 -57.978,0.108 -63.02,0.092c-1.2,-0.011 -5.344,-0.048 -14.999,0.005c-21.747,0.327 -21.729,-0.111 -43.496,-0.006Z" style="fill:#89b7d1;"/><path d="M267.786,437.011c-0.119,1.057 -0.237,2.115 -0.356,3.172c-0.589,0.214 -3.987,1.452 -6.862,3.775c-11.399,9.209 -5.511,31.061 5.779,46.224c8.172,10.977 21.222,16.617 25.31,17.172c6.242,0.849 12.507,0.529 16.927,-4.658c3.048,-3.577 2.288,-4.542 4.096,-4.839c0.549,-0.09 1.116,-0.026 1.664,-0.116c-0.004,0.013 -0.189,1.538 -0.879,3.198c-1.398,3.366 -5.484,6.739 -6.643,7.392c-2.674,1.508 -2.623,1.587 -2.865,1.698c-8.403,3.863 -42.767,24.71 -54.29,27.927c-5.537,1.546 -5.367,1.948 -5.751,2.119c-0.639,-0.344 -1.026,-1.06 -1.666,-1.405c-0.068,-0.037 -4.05,-0.69 -7.377,-2.259c-10.118,-4.77 -13.191,-8.427 -19.239,-19.458c-2.235,-4.075 -3.685,-10.472 -3.697,-17.689c-0.013,-7.491 3.151,-15.802 2.567,-18.015c-0.128,-0.486 -0.511,-0.88 -0.64,-1.367c1.986,-1.888 1.992,-1.869 2.24,-2.165c3.958,-4.727 2.714,-5.889 14.361,-15.706c5.235,-4.412 23.047,-16.319 26.598,-19.001c2.669,-2.016 3.083,-3.667 10.723,-6Z" style="fill:#dad3c7;"/><path d="M209.077,482.365c-0.422,3.274 0.075,3.401 -1.403,6.354c-3.939,7.866 -4.104,19.44 -0.863,26.845c4.766,10.886 10.996,16.13 13.016,18.134c-0.576,0.433 -1.001,1.047 -1.577,1.48c-0.292,0.22 -0.693,0.253 -0.996,0.456c-0.426,0.286 -1.603,1.326 -1.739,1.446c-1.103,0.974 -1.026,1.076 -1.674,1.291c-0.435,0.145 -0.926,0.061 -1.361,0.209c-0.665,0.227 -1.251,0.642 -1.903,0.904c-2.565,1.034 -3.356,-1.204 -6.027,1.378c-4.765,4.605 -8.361,5.605 -14.48,9.883c-0.982,0.687 -1.018,0.62 -12.807,7.779c-1.095,0.665 -4.755,2.887 -14.627,6.518c-2.313,0.851 -2.313,0.83 -2.513,0.905c-2.581,0.963 -3.02,0.386 -4.611,2.643c-2.48,3.518 -1.637,4.111 -2.739,4.787c-0.95,0.582 -1.14,0.121 -2.024,0.793c-1.008,0.766 -0.546,1.159 -1.558,1.928c-0.682,-0.45 -3.812,-2.268 -6.106,-4.553c-0.355,-0.354 -2.971,-2.961 -3.603,-5.125c-2.92,-10.006 -2.076,-16.787 -2.062,-17.679c0.358,-3.08 0.372,-3.046 0.772,-6.094c0.366,-2.794 1.34,-2.336 1.546,-2.897c0.175,-0.478 -0.094,-1.027 -0.281,-1.5c-0.254,-0.644 -0.769,-1.164 -1.023,-1.808c0.851,-0.893 3.926,-4.825 17.133,-17.354c4.625,-4.387 20.171,-15.754 22.066,-17.008c1.441,-0.954 20.486,-13.775 31.443,-19.715Z" style="fill:#eee7da;"/><path d="M630.347,385.501c0.258,-0.095 3.226,-1.182 3.226,-1.182c0.631,0.117 1.072,0.783 1.704,0.9c0.994,0.022 1.988,0.044 2.981,0.066c-0.051,0.364 -0.326,0.673 -0.377,1.038c-0.008,0.06 0.093,12.906 0.102,14.029c0.014,1.757 0.409,2.466 0.448,2.705c0.58,0.189 1.159,0.378 1.739,0.567c0.072,-0.404 0.291,-0.297 0.364,-0.707c0.042,-0.237 -0.124,-0.473 -0.112,-0.713c0.096,-1.791 0.209,-1.758 0.216,-3.555c0.04,-9.707 -0.246,-9.688 -0.178,-10.528c0.027,-0.333 0.322,-0.607 0.349,-0.94c0.386,0.723 1.797,0.407 2.183,1.129c0.501,0.938 -0.188,1.025 0.079,13.295c0.044,2.007 -0.84,2.933 1.156,3.101c2.076,0.175 1.24,-0.958 1.298,-3.028c0.644,0.564 1.387,1.008 2.03,1.572c1.347,1.18 1.089,2.193 2.776,1.577c0,0 0.684,-1.69 0.743,-1.837c0.764,0.402 1.432,0.972 2.196,1.375c0.214,0.112 2.526,1.331 2.992,0.387c0.151,-0.307 -0.042,-2.395 -0.122,-10.495c-0.074,-7.436 0.698,-7.359 0.652,-7.999c-0.024,-0.342 -0.689,-0.399 -0.713,-0.741c0.445,0.046 0.851,0.306 1.296,0.352c0.481,0.05 0.967,-0.107 1.449,-0.069c0.377,0.03 0.914,-0.058 1.101,0.271c0.569,1 -0.359,1.233 0.294,2.182c0.785,1.14 1.437,0.335 2.235,1.494c0.109,5.723 0.42,12.706 -0.235,16.502c-0.267,1.548 -0.555,1.565 -0.058,3.052c0.147,0.441 0.498,0.791 0.671,1.222c0.071,0.177 0.85,0.767 0.525,9.209c-0.148,3.852 -2.049,4.436 -2.402,4.769c-2.264,-0.801 -2.181,-1.116 -4.601,-1.14c-8.887,-0.089 -8.876,0.147 -111.094,-0.043c-12.956,-0.024 -97.487,-0.041 -112.482,0.112c-4.213,0.043 -3.922,1.128 -4.796,1.328c-0.452,0.104 -0.887,-0.482 -1.339,-0.378c-0.641,-0.722 -1.899,-0.964 -1.97,-4.611c-0.067,-3.458 0.018,-3.436 0.153,-7.579l1.927,-0.709c0.717,0.299 0.775,-0.259 1.5,0.043c0.869,0.363 0.525,0.818 1.376,1.158c0.236,0.094 18.127,0.128 22.668,0.085c79.131,-0.74 204.155,0.666 206.789,-0.781c0.244,-0.134 2.953,-1.622 0.631,-3.418c-0.486,-0.376 -1.213,0.218 -1.827,0.258c-4.035,0.265 -10.064,-0.191 -28.606,-0.085c0.208,-0.467 -0.02,-0.507 0.194,-0.989c0.365,-0.82 0.591,-0.659 0.913,-1.5c0.29,-0.757 0.07,-1.965 0.114,-4.544c0.136,-8.111 0.104,-8.09 -0.156,-16.205Z" style="fill:#76a2bf;"/><path d="M447.576,543.154c-3.842,1.528 -3.702,1.76 -6.967,4.266c-0.291,-0.646 -1.026,-1.023 -1.316,-1.67c-0.208,-0.463 -0.069,-1.013 -0.117,-1.518c-0.725,-7.632 0.288,-18.148 0.499,-23.992c0.705,-19.522 1.381,-19.468 1.671,-38.982c0.407,-27.366 -0.56,-30.595 3.444,-32.945c4.522,-2.655 4.831,-0.333 16.387,3.136c8.253,2.478 12.049,2.213 13.628,2.494c6.243,1.112 8.421,7.141 8.426,10.783c0.011,6.996 -5.71,12.072 -8.774,14.661c-6.57,5.551 -9.84,3.482 -11.868,7.786c-3.191,6.775 -6.703,24.922 -7.129,27.125c-0.376,1.944 -2.028,10.484 -5.909,24.034c-0.792,2.765 -1.925,2.774 -2.111,3.169c-0.235,0.5 0.37,1.152 0.135,1.652Z" style="fill:#b5c1ce;"/><path d="M194.871,134.292c0.81,0.549 1.014,0.256 6.564,5.32c2.661,2.428 2.615,2.424 5.202,4.905c-1.415,1.234 -1.652,0.978 -3.655,3.53c-6.177,7.871 -10.849,11.922 -18.995,19.933c-15.149,14.898 -15.064,14.938 -30.033,29.973c-4.494,4.513 -4.58,4.381 -9.153,8.849c-7.935,7.753 -7.08,16.76 -11.033,22.093c-8.489,11.453 -23.074,4.819 -17.588,-11.669c3.355,-10.084 11.616,-16.381 11.912,-16.65c5.501,-4.999 5.28,-5.186 10.579,-10.405c5.308,-5.228 5.247,-5.245 10.497,-10.508c1.505,-1.509 1.504,-1.481 3.017,-2.981c4.515,-4.484 9.03,-8.969 13.545,-13.453c17.672,-17.397 17.852,-17.194 20.689,-19.848c4.554,-4.26 4.916,-3.938 8.451,-9.089Z" style="fill:#f6a0bd;"/><path d="M138.436,536.442c0.254,0.644 0.769,1.164 1.023,1.808c0.187,0.473 0.456,1.022 0.281,1.5c-0.206,0.562 -1.18,0.103 -1.546,2.897c-0.4,3.048 -0.414,3.014 -0.772,6.094c-0.68,-0.582 -1.553,-0.909 -2.232,-1.492c-0.321,-0.275 -0.301,-1.047 -0.724,-1.042c-0.263,0.003 -2.303,1.727 -2.672,2.491c-0.37,0.764 -0.954,7.708 0.015,11.984c0.483,2.132 2.269,7.01 3.175,8.904c1.595,3.334 1.867,3.151 4.083,6.117l-1.638,1.719c-0.516,0.542 -0.15,0.903 -1.524,1.602c-1.535,0.782 -1.483,0.889 -3.166,1.205c-0.462,0.087 -0.941,0.066 -1.4,0.168c-3.273,0.729 -5.631,6.109 -7.815,6.911c-1.356,0.498 -3.059,-1.794 -6.001,1.653c-0.224,0.262 -2.794,3.273 -2.79,3.287c0.149,0.61 1.153,0.873 1.137,1.5c-0.002,0.083 -1.745,1.958 -2.81,2.72c-1.937,1.386 -2.607,-0.54 -5.494,0.754c-3.166,1.419 -3.317,0.913 -6.587,2.083c-4.932,1.764 -8.374,1.934 -14.435,2.683c-6.619,0.817 -7.393,-0.345 -8.914,2.261c-0.275,0.471 -0.339,1.053 -0.65,1.5c-0.444,0.638 -1.142,1.071 -1.586,1.709c-0.108,-0.217 -0.299,-0.386 -0.407,-0.603c-5.068,-10.241 3.648,-21.036 4.803,-22.466c5.554,-6.879 6.767,-7.596 12.111,-12.063c22.417,-18.737 33.887,-23.402 38.081,-27.853c4.015,-4.26 4.092,-4.156 8.453,-8.031Z" style="fill:#f0eadc;"/><path d="M219.827,533.698c12.879,10.486 15.048,7.084 19.423,8.629c0.702,0.248 1.349,0.635 2.05,0.883c-6.114,4.528 -6.505,3.877 -12.782,8.192c-2.875,1.976 -9.198,5.263 -11.585,6.679c-8.673,5.147 -10.219,5.616 -15.3,8.466c-8.925,5.006 -9.133,4.567 -16.669,8.661c-7.902,4.293 -17.642,6.576 -22.136,8.208c-1.007,-0.805 -0.577,-1.166 -1.578,-1.965c-0.099,-0.079 -0.079,-0.063 -1.5,-0.494c-5.938,-1.8 -6.698,-2.707 -10.558,-4.859c1.012,-0.769 0.551,-1.163 1.558,-1.928c0.884,-0.672 1.074,-0.211 2.024,-0.793c1.102,-0.675 0.259,-1.269 2.739,-4.787c1.591,-2.257 2.03,-1.68 4.611,-2.643c0.2,-0.075 0.2,-0.054 2.513,-0.905c9.872,-3.631 13.532,-5.853 14.627,-6.518c11.789,-7.159 11.824,-7.092 12.807,-7.779c6.119,-4.278 9.715,-5.278 14.48,-9.883c2.672,-2.582 3.463,-0.343 6.027,-1.378c0.651,-0.263 1.238,-0.678 1.903,-0.904c0.434,-0.148 0.925,-0.064 1.361,-0.209c0.648,-0.215 0.571,-0.317 1.674,-1.291c0.136,-0.12 1.312,-1.16 1.739,-1.446c0.303,-0.204 0.704,-0.236 0.996,-0.456c0.576,-0.433 1.001,-1.047 1.577,-1.48Z" style="fill:#b8b1a7;"/><path d="M137.421,548.742c-0.014,0.892 -0.858,7.673 2.062,17.679c0.631,2.164 3.248,4.771 3.603,5.125c2.293,2.285 5.423,4.103 6.106,4.553c3.86,2.153 4.62,3.06 10.558,4.859c1.421,0.431 1.401,0.415 1.5,0.494c1.001,0.8 0.571,1.161 1.578,1.965c-2.232,1.519 -2.194,1.533 -4.512,2.932c-12.875,7.456 -12.744,7.645 -13.898,8.225c-14.113,7.096 -13.624,7.996 -27.984,14.569c-5.632,2.578 -18.032,8.793 -27.216,7.342c-10.268,-1.623 -12.337,-6.768 -13.823,-9.027c0.444,-0.638 1.142,-1.071 1.586,-1.709c0.312,-0.447 0.375,-1.029 0.65,-1.5c1.521,-2.605 2.295,-1.443 8.914,-2.261c6.061,-0.749 9.503,-0.919 14.435,-2.683c3.269,-1.169 3.421,-0.664 6.587,-2.083c2.887,-1.294 3.557,0.632 5.494,-0.754c1.065,-0.762 2.808,-2.637 2.81,-2.72c0.015,-0.627 -0.988,-0.89 -1.137,-1.5c-0.003,-0.014 2.566,-3.025 2.79,-3.287c2.942,-3.447 4.645,-1.155 6.001,-1.653c2.184,-0.802 4.542,-6.183 7.815,-6.911c0.459,-0.102 0.938,-0.082 1.4,-0.168c1.683,-0.316 1.631,-0.423 3.166,-1.205c1.374,-0.7 1.009,-1.06 1.524,-1.602c1.976,-0.125 2.942,1.771 3.259,-0.206c0.117,-0.73 -1.738,-0.783 -1.621,-1.513c-2.216,-2.966 -2.489,-2.782 -4.083,-6.117c-0.906,-1.894 -2.692,-6.772 -3.175,-8.904c-0.969,-4.276 -0.385,-11.22 -0.015,-11.984c0.369,-0.763 2.409,-2.488 2.672,-2.491c0.423,-0.005 0.403,0.767 0.724,1.042c0.68,0.582 1.553,0.909 2.232,1.492Z" style="fill:#bcb5ab;"/><path d="M426.64,424.378c0.452,-0.104 0.887,0.482 1.339,0.378c0.874,-0.2 0.583,-1.285 4.796,-1.328c14.995,-0.153 99.526,-0.136 112.482,-0.112c102.218,0.19 102.207,-0.046 111.094,0.043c2.42,0.024 2.337,0.34 4.601,1.14c-0.06,0.756 0.412,0.671 0.352,1.423c-0.059,0.738 -0.411,0.591 -0.572,1.34c-0.114,0.531 0.049,1.097 -0.065,1.629c-2.468,0.578 -2.444,0.808 -8.916,0.793c-52.435,-0.124 -52.43,0.029 -56.989,0.002c-36.146,-0.212 -164.149,0.396 -165.01,-0.027c-0.779,-0.383 -1.207,-1.368 -2.037,-1.622c-0.386,-0.118 -0.606,0.812 -0.992,0.694c0.062,-0.733 0.192,-0.692 0.253,-1.415c0.147,-1.723 -0.324,-2.833 -0.336,-2.938Z" style="fill:#445a77;"/><path d="M274.225,437.111c0.275,0.029 0.54,-0.185 0.815,-0.156c2.32,0.246 5.556,1.23 6.029,1.375c4.102,1.249 9.006,5.717 12.087,8.293c-5.299,4.438 -5.475,4.202 -5.928,4.595c-0.267,0.232 -0.387,0.604 -0.654,0.836c-0.12,-0.117 -0.371,0.006 -0.491,-0.111c-0.352,-0.345 -0.612,-1.363 -2.932,-2.734c-10.333,-6.108 -20.105,-0.468 -20.456,12.546c-0.212,7.843 3.138,13.489 6.471,19.562c0.909,1.657 1.526,2.051 3.117,4.399c2.835,4.183 13.438,12.868 21.009,13.162c3.618,0.141 9.604,0.02 11.969,-8.623c2.215,-8.095 -2.479,-16.404 -3.218,-17.908c-1.345,-2.737 -2.576,-2.839 -2.934,-3.233c3.246,-3.625 4.405,-6.509 4.831,-7.287c0.711,0.821 0.894,0.604 1.606,1.426c0.635,0.733 0.41,0.848 1.016,1.601c0.449,0.558 1.034,0.995 1.507,1.533c7.608,8.668 7.334,20.472 7.291,22.353c-0.106,4.574 0.164,4.604 -1.016,9.003c-0.549,0.09 -1.116,0.026 -1.664,0.116c-1.809,0.298 -1.048,1.262 -4.096,4.839c-4.42,5.187 -10.685,5.507 -16.927,4.658c-4.087,-0.556 -17.138,-6.196 -25.31,-17.172c-11.289,-15.164 -17.178,-37.015 -5.779,-46.224c2.876,-2.323 6.273,-3.561 6.862,-3.775c0.381,-0.078 4.682,-0.956 4.761,-1.011c0.79,-0.555 1.244,-1.506 2.034,-2.06Z" style="fill:#1e1d1e;"/><path d="M292.704,401.604c2.896,-7.866 5.438,-10.391 15.822,-17.303c0.36,-0.24 4.042,-2.69 5.189,-1.513c2.237,2.297 -4.407,2.763 -6.959,9.963c-5.045,14.234 9.116,20.985 15.176,25.243c2.23,1.567 2.155,1.621 4.325,3.249c1.138,0.854 14.305,13.534 2.461,29.572c-1.271,1.72 -9.341,8.683 -10.103,9.109c-2.105,1.177 -2.653,-1.069 -2.634,-1.146c0.141,-0.574 1.669,-2.481 1.831,-2.684c0.417,-0.521 2.575,-3.214 2.923,-7.81c1.025,-13.531 -12.442,-20.142 -17.102,-23.876c-12.127,-9.718 -12.352,-14.612 -10.928,-22.805Z" style="fill:#acaaa9;"/><path d="M286.574,452.053c-2.069,2.435 -2.082,2.399 -3.579,5.258c-0.886,3.732 -1.117,3.733 -0.662,7.538c0.292,2.446 0.477,2.403 1.815,4.489c-0.53,0.205 -0.164,-0.781 -0.673,-0.584c-0.267,0.103 -1.98,0.766 -2.973,1.995c-0.289,0.358 0.371,0.908 0.265,1.356c-0.055,0.233 -0.449,0.174 -0.656,0.294c-0.709,0.41 -1.613,0.626 -2.089,1.292c-0.458,0.64 0.47,2.865 0.567,3.097c2.516,6.03 4.67,6.404 7.045,7.594c4.541,2.277 4.985,2.299 7.624,2.606c5.756,0.67 4.496,-2.385 4.675,-4.212c-0.602,-1.559 -0.508,-1.573 -1.189,-3.079c-2.456,-5.431 -2.217,-5.497 -2.465,-5.949c-0.255,-0.466 -0.73,-0.786 -0.986,-1.252c0.367,-0.176 2.385,-0.724 5.816,-3.387c0.358,0.395 1.589,0.497 2.934,3.233c0.739,1.504 5.434,9.813 3.218,17.908c-2.365,8.643 -8.351,8.764 -11.969,8.623c-7.571,-0.294 -18.174,-8.979 -21.009,-13.162c-1.591,-2.348 -2.208,-2.742 -3.117,-4.399c-3.333,-6.073 -6.683,-11.719 -6.471,-19.562c0.351,-13.014 10.123,-18.653 20.456,-12.546c2.319,1.371 2.58,2.39 2.932,2.734c0.12,0.117 0.371,-0.006 0.491,0.111Z" style="fill:#4e4c4c;"/><path d="M507.768,408.83c21.767,-0.105 21.749,0.333 43.496,0.006c9.655,-0.054 13.799,-0.016 14.999,-0.005c5.042,0.016 44.936,0.142 63.02,-0.092c18.542,-0.106 24.571,0.35 28.606,0.085c0.614,-0.04 1.34,-0.634 1.827,-0.258c2.322,1.796 -0.387,3.284 -0.631,3.418c-2.634,1.447 -127.658,0.041 -206.789,0.781c-4.541,0.042 -22.432,0.009 -22.668,-0.085c-0.852,-0.34 -0.507,-0.795 -1.376,-1.158c-0.725,-0.303 -0.783,0.256 -1.5,-0.043c0.591,-0.472 0.909,-1.23 1.5,-1.701c0.94,-0.75 1.05,-0.571 15.005,-0.776c9.06,-0.133 30.365,-0.053 33.005,-0.043c7.979,0.03 10.405,-0.159 31.507,-0.128Z" style="fill:#d1e4ed;"/><path d="M503,270.325c-3.05,-3.342 -2.855,-4.9 -4.898,-9.177c-2.141,-4.481 -1.688,-10.5 7.214,-38.996c0.13,-0.416 1.29,-4.13 2.38,-4.902c0.423,-0.3 1.084,-0.258 1.554,-0.039c0.633,0.296 0.931,1.059 1.5,1.464c0.446,0.318 1.041,0.374 1.5,0.673c1.747,1.137 1.053,1.71 1.944,3.554c2.736,5.664 -0.096,18.298 -0.444,19.848c-1.509,6.729 -2.044,6.578 -3.398,13.321c-1.151,5.734 -5.331,9.21 -5.707,10.515c-0.143,0.496 0.163,0.508 -0.046,0.983c-0.653,1.484 -0.955,1.291 -1.6,2.756Z" style="fill:#fdfbf6;"/><path d="M293.157,446.622c6.294,-5.094 5.764,-6.213 6.501,-6.999c0.204,-0.218 2.287,-2.44 3.47,1.359c4.284,13.76 1.143,19.659 0.814,20.843c-0.426,0.779 -1.585,3.662 -4.831,7.287c-3.43,2.663 -5.448,3.211 -5.816,3.387c-1.047,0.209 -2.094,0.418 -3.142,0.626c-2.573,-0.605 -2.839,-0.186 -4.661,-2.096c-0.751,-0.787 -0.664,-0.835 -1.344,-1.69c-1.338,-2.087 -1.522,-2.043 -1.815,-4.489c-0.455,-3.805 -0.224,-3.806 0.662,-7.538c1.497,-2.859 1.51,-2.823 3.579,-5.258c0.267,-0.232 0.387,-0.604 0.654,-0.836c0.453,-0.394 0.63,-0.157 5.928,-4.595Z" style="fill:#d35012;"/><path d="M213.864,479.883c0.128,0.486 0.511,0.88 0.64,1.367c0.583,2.213 -2.58,10.524 -2.567,18.015c0.012,7.217 1.463,13.614 3.697,17.689c6.048,11.031 9.122,14.687 19.239,19.458c3.327,1.569 7.308,2.222 7.377,2.259c0.639,0.344 1.026,1.06 1.666,1.405c-1.104,1.745 -1.105,1.73 -2.616,3.135c-0.702,-0.248 -1.349,-0.635 -2.05,-0.883c-4.375,-1.545 -6.544,1.857 -19.423,-8.629c-2.02,-2.004 -8.25,-7.248 -13.016,-18.134c-3.242,-7.405 -3.077,-18.98 0.863,-26.845c1.479,-2.953 0.981,-3.08 1.403,-6.354c2.437,-1.19 2.424,-1.14 4.787,-2.482Z" style="fill:#b8afa3;"/><path d="M284.148,469.339c0.68,0.854 0.593,0.902 1.344,1.69c1.823,1.91 2.089,1.491 4.661,2.096c-0.309,0.351 -1.094,-0.414 -1.403,-0.063c-0.183,0.208 -1.372,1.558 0.445,3.432c0.17,0.175 0.332,-0.068 2.344,1.959c0.415,0.418 1.369,1.493 1.486,1.624c0.206,0.232 0.33,0.539 0.573,0.731c0.331,0.261 0.869,0.257 1.113,0.601c0.233,0.328 -0.114,0.904 0.163,1.196c0.352,0.372 1.261,0.424 1.376,0.431c0.874,0.05 0.809,-0.306 1.684,-0.257c-0.179,1.826 1.081,4.882 -4.675,4.212c-2.639,-0.307 -3.084,-0.329 -7.624,-2.606c-2.375,-1.191 -4.529,-1.565 -7.045,-7.594c-0.097,-0.232 -1.025,-2.457 -0.567,-3.097c0.476,-0.666 1.38,-0.882 2.089,-1.292c0.208,-0.12 0.601,-0.061 0.656,-0.294c0.106,-0.448 -0.555,-0.997 -0.265,-1.356c0.993,-1.228 2.706,-1.891 2.973,-1.995c0.508,-0.197 0.143,0.789 0.673,0.584Z" style="fill:#2c2b2d;"/><path d="M645.489,385.707c0.397,-0.067 0.981,-0.703 3.253,-0.546c1.358,0.094 1.372,0.101 1.48,0.151c0.152,0.071 0.068,0.129 0.982,1.856c-0.075,12.431 -0.111,14.556 -0.132,15.822c-0.059,0.147 -0.743,1.837 -0.743,1.837c-1.687,0.616 -1.429,-0.397 -2.776,-1.577c-0.644,-0.564 -1.387,-1.008 -2.03,-1.572c0.052,-8.008 0.19,-7.984 -0.033,-15.971Z" style="fill:#3b5f93;"/><path d="M656.076,385.515c0.024,0.342 0.689,0.399 0.713,0.741c0.046,0.64 -0.725,0.563 -0.652,7.999c0.08,8.1 0.273,10.189 0.122,10.495c-0.466,0.944 -2.779,-0.274 -2.992,-0.387c-0.764,-0.402 -1.432,-0.972 -2.196,-1.375c0.021,-1.266 0.057,-3.39 0.132,-15.822c0.812,-0.457 1.234,-1.447 2.045,-1.904c0.358,-0.201 1.393,-0.109 1.514,-0.099c0.682,0.061 0.609,0.287 1.312,0.35Z" style="fill:#32548a;"/><path d="M592.862,534.754c-0.03,0.003 -1.146,0.526 -2.623,0.287c-1.008,-0.164 -1.989,-0.462 -2.994,-0.645c-4.501,-0.819 -5.574,0.117 -5.864,-2.221c-0.408,-3.29 0.059,-3.654 0.303,-3.844c0.727,-0.567 2.597,-1.654 2.829,-1.789c2.719,-1.58 5.154,0.613 5.997,2.646c1.222,2.947 1.214,2.949 1.281,3.06c0.27,0.443 0.706,0.785 0.91,1.262c0.164,0.385 -0.004,0.86 0.161,1.244Z" style="fill:#edebea;"/><path d="M575.201,569.679c-2.914,1.099 -2.84,1.414 -5.945,1.603c-0.299,0.018 -3.338,0.203 -3.477,-1.384c-0.149,-1.697 0.176,-1.808 1.828,-2.229c0.162,-0.041 2.707,-0.266 4.637,-0.941c3.343,-1.17 9.265,-6.461 9.653,-3.048c0.185,1.622 -1.811,2.987 -2.06,3.158c-1.8,1.232 -4.258,2.627 -4.637,2.842Z" style="fill:#edebea;"/><path d="M551.651,385.934c0.369,0.153 0.743,-0.6 1.112,-0.448c1.61,0.665 1.288,1.038 1.409,2.789c0.035,0.509 0.808,16.19 -0.936,17.975c-0.647,0.662 -1.689,0.838 -2.336,1.5c0.079,-0.77 -0.189,-0.736 -0.11,-1.5c0.081,-0.791 0.317,-0.709 0.416,-1.484c0.103,-0.8 0.284,-5.489 0.302,-5.967c0.267,-6.909 -0.106,-11.42 -0.09,-11.911c0.011,-0.327 0.222,-0.627 0.233,-0.954Z" style="fill:#5d8bad;"/><path d="M623.296,385.263c-0.034,0.508 -0.249,0.992 -0.283,1.5c-0.025,0.382 -0.051,17.019 -0.375,17.864c-0.072,0.188 -1.309,3.41 -2.501,0.232c-0.466,-1.244 0.083,-1.293 0.175,-16.601c0.002,-0.395 0.032,-5.283 0.863,-4.866c0.843,0.423 1.278,1.449 2.121,1.872Z" style="fill:#3e6490;"/><path d="M580.182,544.611c-2.218,1.824 -2.328,2.453 -5.042,1.479c-4.106,-1.474 -3.511,-7.907 1.623,-7.997c3.478,-0.061 5.11,3.761 3.994,5.845c-0.139,0.26 -0.436,0.413 -0.575,0.673Z" style="fill:#f0eeeb;"/><path d="M458.02,403.268c0.253,-15.516 0.029,-15.526 0.215,-16.527c0.312,-1.683 2.654,-1.874 2.934,0.072c0.261,1.811 -0.113,14.801 -0.124,14.944c-0.015,0.198 -0.165,2.208 -1.078,2.229c-0.691,0.016 -1.255,-0.733 -1.946,-0.718Z" style="fill:#8fc5df;"/><path d="M569.839,406.25c-0.495,-0.704 -1.607,-0.796 -2.102,-1.5c-0.11,-0.156 0.281,-3.924 0.086,-12c-0.014,-0.574 -0.165,-6.833 0.186,-7.178c0.211,-0.208 2.155,-1.844 2.411,2.806c0.142,2.568 0.219,9.478 0.216,10.385c-0.019,5.052 -0.227,5.018 -0.797,7.487Z" style="fill:#5884a9;"/><path d="M640.945,385.787c0.265,-0.046 3.308,-0.576 3.308,-0.576c0.443,0.024 0.793,0.471 1.236,0.496c0.223,7.987 0.085,7.963 0.033,15.971c-0.057,2.07 0.778,3.203 -1.298,3.028c-1.996,-0.168 -1.112,-1.095 -1.156,-3.101c-0.266,-12.27 0.423,-12.357 -0.079,-13.295c-0.386,-0.723 -1.797,-0.407 -2.183,-1.129l0.137,-1.393Z" style="fill:#597ca9;"/><path d="M530.568,388.349c0.014,-0.455 -0.072,-0.91 -0.058,-1.365c0.068,-2.15 1.574,-1.999 2.5,-0.06c0.204,0.427 0.378,17.418 0.175,17.817c-0.312,0.612 -0.749,1.501 -1.436,1.48c-0.26,-0.008 -1.217,-0.036 -1.277,-2.984c-0.024,-1.191 -0.017,-1.172 0.096,-14.889Z" style="fill:#6392b4;"/><path d="M556.931,392.745c-0.016,-1.275 -0.293,-6.674 0.506,-7.135c2.101,-1.214 2.23,2.486 2.24,2.771c0.037,1.075 0.266,7.63 -0.037,13.448c-0.169,3.239 -0.224,3.35 -0.495,3.362c-0.662,0.029 -1.442,0.024 -1.947,-0.407c-0.382,-0.326 -0.247,-2.998 -0.266,-12.039Z" style="fill:#5b86a9;"/><path d="M505.233,385.957c0.703,-0.041 0.302,-0.763 1.008,-0.804c0.105,-0.006 0.548,-0.032 1.124,0.679c0.226,0.279 0.338,2.232 0.349,2.428c0.646,11.322 -0.167,16.567 -0.388,17.989c-0.056,-0.043 -2.178,-0.101 -2.222,-2.958c-0.021,-1.387 0.016,-1.377 0.129,-17.334Z" style="fill:#6b9ebd;"/><path d="M540.871,404.739c0.456,-12.604 -0.266,-18.575 1.376,-19.5c0.235,-0.132 1.515,-0.773 1.521,3.006c0.028,16.376 -0.457,17.984 -1.243,18.005c-0.747,0.02 -0.908,-1.531 -1.654,-1.511Z" style="fill:#5e8eaf;"/><path d="M494.923,404.358c-0.275,-4.261 0.08,-4.248 -0.002,-8.519c-0.189,-9.958 0.086,-10.198 0.888,-10.444c0.155,-0.048 1.374,-0.422 1.684,1.129c0.187,0.939 0.357,17.245 -0.312,18.137c-0.752,1.002 -1.297,0.929 -1.431,0.911c-0.831,-0.111 0.021,-1.1 -0.827,-1.214Z" style="fill:#72a4be;"/><path d="M610.216,385.837c0.576,0.324 0.449,-0.775 1.036,-0.445c0.139,0.078 0.598,0.336 1.109,1.652c0.024,0.061 0.045,2.511 0.047,2.729c0.117,13.664 0.341,13.729 -0.158,14.803c-2.38,5.127 -2.537,-3.924 -2.544,-4.325c-0.178,-10.252 0.321,-13.276 0.509,-14.414Z" style="fill:#446c95;"/><path d="M594.762,385.295c0.593,0.42 0.759,-0.128 1.347,0.289c0.066,0.047 0.256,0.181 0.381,0.936c0.075,0.456 0.095,15.927 -0.011,16.771c-0.354,2.817 -1.868,2.012 -2.067,1.907c-0.619,-0.329 -0.569,-10.06 -0.564,-10.936c0.033,-6.437 -0.252,-6.447 -0.103,-6.985c0.199,-0.715 0.818,-1.266 1.017,-1.982Z" style="fill:#466e96;"/><path d="M591.669,385.571c-0.02,0.35 0.195,0.688 0.175,1.039c-0.034,0.589 -0.268,1.152 -0.335,1.738c-0.053,0.467 -0.127,13.98 -0.195,14.843c-0.355,4.513 -2.33,1.727 -2.447,1.528c-0.402,-0.684 0.093,-15.113 0.139,-16.427c0.009,-0.263 0.098,-2.849 1.245,-3.038c0.478,-0.079 0.941,0.396 1.419,0.317Z" style="fill:#466f95;"/><path d="M510.502,397.215c-0.108,-9.851 -0.266,-9.856 -0.111,-10.697c0.348,-1.892 1.524,-2.025 2.297,-0.269c0.888,2.019 0.385,18.501 -0.212,18.87c-0.523,0.323 -1.355,0.1 -1.818,-0.305c-0.318,-0.279 -0.169,-6.991 -0.155,-7.599Z" style="fill:#70a1bf;"/><path d="M471.714,385.391c0.048,0.33 0.341,0.592 0.389,0.922c0.045,0.308 -0.027,3.086 -0.033,3.354c-0.317,12.332 -0.123,13.773 -0.78,14.48c-0.121,0.131 -1.639,1.763 -2.151,0.585c-0.05,-0.115 0.018,-2.71 0.024,-2.946c0.206,-7.884 0.1,-15.964 1.121,-16.478c0.426,-0.215 1.003,0.297 1.43,0.082Z" style="fill:#83b9d2;"/><path d="M564.83,404.789c-0.999,-0.041 -0.954,0.304 -1.962,0.262c-0.175,-0.007 -0.334,-0.191 -0.384,-0.359c-0.116,-0.397 0.153,-13.834 0.096,-16.651c-0.005,-0.251 -0.077,-3.779 2.016,-2.411c0.406,0.265 0.491,2.328 0.499,2.534c0.407,9.856 -0.134,15.302 -0.265,16.626Z" style="fill:#5e89ac;"/><path d="M625.672,385.448c0.651,-0.244 1.093,-0.9 1.744,-1.145c0.779,-0.293 1.473,-0.139 1.599,-0.111c0.226,0.05 0.19,0.508 0.416,0.558c-0.507,0.828 -1.129,-0.105 -1.626,0.707c-0.061,0.099 0.201,0.042 0.329,1.414c0.043,0.458 -0.06,0.919 -0.068,1.38c-0.219,13.829 0.011,13.821 -0.111,15.016c-0.189,1.858 -0.476,2.732 -2.04,1.701c-0.652,-0.43 -0.176,-7 -0.242,-19.521Z" style="fill:#406593;"/><path d="M517.636,404.551c-0.596,0.036 -0.29,1.52 -0.886,1.556c-1.388,0.084 -1.354,-2.603 -1.351,-2.855c0.014,-1.075 0.002,-1.055 0.126,-13.44c0.003,-0.321 0.037,-3.709 0.24,-4.009c0.143,-0.211 2.27,-1.524 2.314,1.098c0.012,0.711 -0.024,0.702 -0.059,8.888c-0.029,6.701 -0.213,6.66 -0.383,8.762Z" style="fill:#6a9cbb;"/><path d="M583.054,404.856c0.079,-0.561 0.464,-1.049 0.543,-1.61c0.446,-3.162 -0.373,-17.193 0.751,-17.842c1.885,-1.089 1.969,2.436 1.976,2.704c0.032,1.335 0.382,16.037 -0.499,16.687c-0.251,0.185 -1.863,0.221 -2.026,0.224c-0.389,0.009 -0.33,-0.172 -0.744,-0.163Z" style="fill:#557fa4;"/><path d="M475.094,385.739l1.151,-0.378c0.195,0.686 1.167,0.965 1.362,1.652c0.153,0.539 -0.374,1.068 -0.432,1.625c-0.094,0.91 -0.017,1.829 -0.021,2.744c-0.003,0.827 -0.033,9.954 -0.072,10.338c-0.03,0.297 -0.427,4.255 -2.254,2.971c-0.462,-0.325 -0.421,-4.109 -0.418,-4.468c0.131,-12.12 0.245,-12.112 0.683,-14.482Z" style="fill:#81b5cf;"/><path d="M464.076,404.862c-0.785,-7.551 -0.234,-7.544 -0.15,-15.143c0.004,-0.33 0.042,-3.815 0.507,-4.097c2.239,-1.358 2.225,2.433 2.224,2.714c-0.021,6.053 -0.285,12.362 -0.33,13.437c-0.01,0.236 -0.104,2.487 -0.663,2.878c-0.438,0.307 -1.152,-0.095 -1.589,0.212Z" style="fill:#8ac1d9;"/><path d="M599.17,403.259c0.005,-15.431 -0.265,-15.415 -0.157,-16.751c0.116,-1.445 2.166,-1.425 2.657,0.618c0.151,0.63 0.335,15.493 0.13,16.117c-0.099,0.303 -0.533,0.414 -0.632,0.717l-1.997,-0.7Z" style="fill:#4c759e;"/><path d="M479.564,385.858c0.444,-0.018 0.742,-0.59 1.186,-0.608c2.076,-0.086 1.258,0.988 1.28,3.076c0.158,14.783 0.607,14.984 -0.31,15.986c-0.277,0.302 -1.568,0.243 -1.813,-0.08c-0.604,-0.795 -0.042,-10.176 -0.365,-15.871c-0.071,-1.257 0.011,-1.237 0.023,-2.502Z" style="fill:#7ab1cb;"/><path d="M293.295,472.498c0.255,0.466 0.73,0.786 0.986,1.252c0.247,0.452 0.008,0.518 2.465,5.949c0.681,1.506 0.587,1.52 1.189,3.079c-0.875,-0.05 -0.81,0.306 -1.684,0.257c-0.115,-0.007 -1.024,-0.058 -1.376,-0.431c-0.276,-0.292 0.07,-0.868 -0.163,-1.196c-0.244,-0.344 -0.782,-0.339 -1.113,-0.601c-0.243,-0.192 -0.367,-0.5 -0.573,-0.731c-0.117,-0.132 -1.071,-1.206 -1.486,-1.624c-2.012,-2.027 -2.174,-1.783 -2.344,-1.959c-1.818,-1.873 -0.628,-3.224 -0.445,-3.432c0.309,-0.351 1.094,0.414 1.403,0.063c1.047,-0.209 2.094,-0.418 3.142,-0.626Z" style="fill:#111114;"/><path d="M537.943,404.871c-0.51,-0.391 -1.417,0.336 -1.926,-0.055c-0.169,-0.13 -0.168,-2.851 -0.168,-3.099c0.004,-15.934 -0.012,-16.094 0.45,-16.381c1.976,-1.227 2.065,2.542 2.071,2.822c0.265,11.173 -0.261,15.386 -0.427,16.713Z" style="fill:#6b9aba;"/><path d="M501.755,385.227c0.051,0.184 0.918,1.132 0.882,3.202c-0.021,1.196 -0.24,13.881 -0.402,14.944c-0.304,1.988 -0.696,2.942 -2.264,1.684c-0.443,-0.356 -0.034,-1.137 -0.041,-1.705c-0.018,-1.422 -0.219,-17.16 0.485,-17.773c0.349,-0.303 0.992,-0.049 1.34,-0.353Z" style="fill:#77a8c3;"/><path d="M638.257,385.285c0.896,0.167 1.792,0.335 2.688,0.502l-0.137,1.393c-0.027,0.333 -0.322,0.607 -0.349,0.94c-0.068,0.84 0.218,0.821 0.178,10.528c-0.007,1.797 -0.12,1.763 -0.216,3.555c-0.013,0.24 0.154,0.476 0.112,0.713c-0.073,0.411 -0.292,0.303 -0.364,0.707l-1.739,-0.567c-0.04,-0.24 -0.434,-0.948 -0.448,-2.705c-0.009,-1.122 -0.11,-13.969 -0.102,-14.029c0.051,-0.364 0.326,-0.673 0.377,-1.038Z" style="fill:#5176a3;"/><path d="M528.241,387.4c-0.365,7.155 -0.224,7.132 -0.42,14.321c-0.076,2.784 0.132,4.474 -2.383,3.256c-0.409,-0.198 -0.048,-1.087 -0.457,-1.285c0.022,-0.182 0.304,-0.262 0.326,-0.445c0.316,-2.684 -0.185,-16.846 0.714,-17.471c0.76,-0.528 1.094,-0.284 1.171,-0.227c0.905,0.662 0.159,1.2 1.048,1.851Z" style="fill:#6897b6;"/><path d="M615.656,385.146l1.424,0.557c0.078,0.286 0.383,0.473 0.461,0.759c0.498,1.825 0.259,14.037 0.235,15.258c-0.047,2.414 0.154,3.297 -2.265,3.181c-0.579,-0.028 -0.385,-15.43 -0.368,-16.772c0.024,-1.946 0.467,-2.714 0.513,-2.983Z" style="fill:#406691;"/><path d="M448.113,385.699c0.43,0.028 0.7,-0.654 1.13,-0.626c1.403,0.092 1.262,0.533 1.248,1.924c-0.158,15.618 0.877,16.257 -1.203,17.614c-1.112,0.725 -1.103,-0.088 -1.23,-1.406c-0.086,-0.888 -0.166,-13.735 -0.173,-14.93c-0.012,-1.904 0.188,-2.122 0.229,-2.576Z" style="fill:#8cc6d9;"/><path d="M454.855,404.48c-0.336,-0.169 -0.762,0.429 -1.098,0.26c-0.353,-0.178 -0.33,-0.719 -0.511,-1.07c-0.51,-0.992 -0.251,-1.059 -0.349,-15.267c-0.031,-4.456 1.941,-2.955 2.16,-2.778c0.666,0.541 0.431,6.567 0.394,13.111c-0.009,1.539 0.035,1.503 -0.014,3.01c-0.06,1.867 -0.517,2.433 -0.582,2.734Z" style="fill:#8dc3d8;"/><path d="M575.163,404.699c-0.177,-0.115 -2.209,-1.432 -2.209,-1.432c-0.157,-0.955 0.246,-0.95 0.2,-12.097c-0.002,-0.385 -0.018,-4.33 0.099,-4.807c0.486,-1.993 1.911,-2 2.376,0.021c0.195,0.846 0.176,0.852 0.044,10.852c-0.068,5.111 -0.163,5.088 -0.509,7.463Z" style="fill:#557fa3;"/><path d="M489.77,404.744c-0.015,-1.438 -0.173,-16.781 0.014,-17.97c0.332,-2.116 1.74,-1.666 2.538,0.342c0.017,0.044 0.186,16.413 -0.358,16.737c-0.678,0.404 -1.515,0.488 -2.194,0.891Z" style="fill:#71a7c5;"/><path d="M606.707,385.39c0.061,0.344 0.359,0.615 0.421,0.959c0.075,0.418 0.026,4.496 0.021,4.887c-0.06,5.003 0.095,13.464 -0.469,13.466c-0.904,0.004 -1.819,-0.634 -2.337,-1.374c-0.317,-0.453 0.177,-1.094 0.222,-1.645c0.264,-3.247 -0.416,-15.743 0.74,-16.341c0.416,-0.215 0.987,0.264 1.403,0.049Z" style="fill:#4d749c;"/><path d="M436.535,401.87c-0.031,0.075 -0.211,-0.058 -0.243,0.017c-0.294,0.707 -0.103,0.737 -0.378,1.475c-2.194,5.901 -2.129,-5.648 -2.126,-6.171c0.049,-8.694 0.019,-11.306 0.645,-11.71c1.796,-1.157 1.9,2.336 1.908,2.593c0.207,6.901 -0.075,6.88 0.193,13.795Z" style="fill:#97d3e8;"/><path d="M548.631,386.024c0.078,1.255 0.53,8.52 0.151,15.716c-0.125,2.377 0.088,3.276 -2.308,3.108c-0.196,-0.014 -0.142,-15.318 -0.092,-16.712c0.074,-2.062 -0.217,-3.113 1.807,-2.618c0.217,0.053 0.224,0.453 0.442,0.506Z" style="fill:#6592b3;"/><path d="M485.198,404.803c-0.108,-0.751 -0.433,-0.701 -0.444,-3.082c-0.01,-2.196 0.05,-2.183 0.007,-7.509c-0.025,-3.073 -0.362,-8.397 0.583,-8.731c1.409,-0.498 1.667,0.76 1.697,0.911c0.022,0.107 0.599,17.494 -0.384,18.244c-0.389,0.297 -1.071,-0.13 -1.46,0.167Z" style="fill:#7cb0cb;"/><path d="M299.271,448.243c-0.233,0.976 0.275,1.103 -0.782,3.28c-1.921,3.956 -5.172,4.785 -6.473,3.89c-2.225,-1.529 -1.373,-2.245 0.539,-4.163c2.144,-2.15 1.997,-2.24 2.195,-2.409c1.869,-1.598 2.117,-0.956 4.521,-0.598Z" style="fill:#fdb833;"/><path d="M485.266,504.57c2.396,0.591 3.148,-0.122 3.868,2.23c0.408,1.335 -2.433,4.517 -5.802,1.995c-0.234,-0.176 -2.435,-1.823 -1.043,-3.509c0.309,-0.375 1.149,-0.576 1.257,-0.602c0.855,-0.205 0.858,0.094 1.721,-0.113Z" style="fill:#eceef0;"/><path d="M239.384,481.414c0.584,-0.242 0.999,-0.801 1.583,-1.043c0.133,-0.055 1.067,-0.443 1.768,0.335c1.476,1.638 -1.742,4.027 -3.196,5.463c-4.015,3.968 -3.688,-0.181 -3.654,-0.474c0.051,-0.439 0.121,-1.052 3.499,-4.282Z" style="fill:#a89e91;"/><path d="M600.828,491.573c0.302,0.272 0.763,0.321 1.065,0.592c2.283,2.056 -1.326,5.931 -4.423,2.831c-1.71,-1.712 -0.741,-3.903 1.804,-3.804c0.533,0.021 1.021,0.361 1.555,0.381Z" style="fill:#cad0d5;"/><path d="M636.436,520.712c0.23,0.258 0.516,0.463 0.746,0.72c1.7,1.901 -1.155,5.099 -4.043,2.353c-1.863,-1.772 -0.502,-4.09 2.12,-3.574c0.418,0.082 0.758,0.418 1.176,0.5Z" style="fill:#808a9f;"/><path d="M467.292,553.114c-0.728,-0.002 -0.672,-0.243 -1.378,-0.246c-0.823,-0.003 -0.768,0.264 -1.613,0.236c-2.069,-0.067 -1.712,-2.591 0.047,-2.699c0.544,-0.034 1.084,0.216 1.626,0.164c0.434,-0.041 0.802,-0.371 1.233,-0.437c3.279,-0.495 2.952,2.641 1.501,2.982c-0.459,0.108 -0.957,-0.109 -1.416,-0.001Z" style="fill:#e3ded6;"/><path d="M528.233,549.889c-0.323,0.119 -0.438,0.578 -0.761,0.697c-3.574,1.316 -3.716,-1.534 -3.733,-1.867c-0.144,-2.882 5.021,-3.105 4.859,0.024c-0.021,0.4 -0.344,0.746 -0.364,1.146Z" style="fill:#c4c2c0;"/><path d="M267.786,437.011c2.234,-0.418 2.202,-0.715 4.403,-0.5c1.579,0.155 1.487,0.438 2.036,0.6c-0.79,0.555 -1.244,1.506 -2.034,2.06c-0.079,0.055 -4.379,0.933 -4.761,1.011c0.119,-1.057 0.237,-2.115 0.356,-3.172Z" style="fill:#3b3836;"/><path d="M522.836,579.235c0.602,0.173 0.614,-0.076 1.239,0.104c0.058,0.017 0.235,0.068 0.617,0.43c2.024,1.922 -1.383,4.258 -3.108,3.087c-0.183,-0.124 -1.693,-1.149 -0.505,-2.718c0.397,-0.525 1.359,-0.378 1.757,-0.903Z" style="fill:#c3bebd;"/><path d="M471.657,520.712c-0.534,-0.535 -0.796,-0.036 -1.324,-0.566c-0.088,-0.088 -0.674,-0.676 -0.647,-1.411c0.06,-1.595 3.528,-2.163 4.701,0.093c0.722,1.389 -0.775,1.789 -0.934,1.832c-0.578,0.155 -1.217,-0.103 -1.795,0.052Z" style="fill:#e2e5e9;"/><path d="M590.2,554.661c-0.487,0.015 -0.9,0.445 -1.387,0.46c-2.206,0.068 -2.048,-1.743 -2.028,-1.968c0.167,-1.907 5.357,-2.326 4.691,-0.052c0,0 -1.174,1.435 -1.276,1.56Z" style="fill:#ebebe9;"/><path d="M583.353,584.475c-0.003,-0.063 -1.233,-1.574 0.521,-3.109c1.007,-0.882 1.257,-1.366 2.145,-0.354c1.072,1.221 1.322,1.511 0.215,2.691c-1.086,1.157 -1.307,0.64 -2.882,0.772Z" style="fill:#b8b8be;"/><path d="M482.224,563.592c1.811,0.651 2.935,0.143 2.379,1.787c-0.579,1.713 -0.714,2.039 -2.5,1.789c-1.013,-0.142 -1.862,-2.128 -0.996,-3.029c0.287,-0.299 0.829,-0.248 1.116,-0.546Z" style="fill:#bdb9b9;"/><path d="M541.751,584.566c0.513,-0.485 0.143,-0.697 0.644,-1.17c0.077,-0.073 0.593,-0.56 1.196,-0.568c0.223,-0.003 2.113,-0.028 1.954,1.992c-0.034,0.427 -1.21,1.615 -1.74,1.672c-0.509,0.055 -0.994,-0.365 -1.503,-0.31l-0.551,-1.615Z" style="fill:#f9f8f5;"/><path d="M516.936,487.013c-0.045,0.611 0.786,1.072 0.741,1.683c-0.15,2.035 -2.212,1.645 -2.441,1.601c-1.541,-0.292 -1.415,-3.268 -0.179,-3.502c0.62,-0.117 1.26,0.335 1.88,0.218Z" style="fill:#d9dfe4;"/><path d="M494.849,542.558c0.14,-0.58 -0.206,-0.565 -0.063,-1.156c0.015,-0.062 0.05,-0.209 0.494,-0.629c1.463,-1.385 4.126,0.748 2.487,2.575c-1.279,1.426 -1.586,0.548 -2.919,-0.79Z" style="fill:#dcd8d5;"/><path d="M488.535,580.902c0.745,0.318 0.822,-0.144 1.571,0.176c0.085,0.036 0.572,0.245 0.797,0.836c0.483,1.271 -1.284,2.89 -2.396,2.296c-1.916,-1.024 -1.426,-1.699 0.028,-3.308Z" style="fill:#dad7d1;"/><path d="M625.642,509.647c-0.483,0.283 -0.555,1.037 -1.037,1.32c-1.157,0.679 -3.982,-1.742 -1.531,-3.087c1.028,-0.564 1.299,-0.816 1.902,0.167c0.302,0.492 0.364,1.107 0.666,1.599Z" style="fill:#586a88;"/><path d="M555.838,536.431c-1.23,-1.157 -1.303,-1.099 -1.321,-1.243c-0.021,-0.163 -0.193,-1.508 0.998,-1.792c2.552,-0.61 3.202,1.278 2.276,2.295c-0.865,0.951 -1.926,0.73 -1.953,0.74Z" style="fill:#bdbbba;"/><path d="M521.143,532.165c0.988,0.067 0.79,-0.69 1.778,-0.622c0.11,0.008 0.686,0.047 1.107,0.819c0.628,1.154 -0.331,2.039 -0.46,2.159c-1.07,0.987 -2.672,-0.003 -2.76,-0.626c-0.082,-0.582 0.417,-1.148 0.335,-1.73Z" style="fill:#c9c4c1;"/><path d="M567.437,487.323c-0.177,0.365 0.004,0.84 -0.173,1.205c-0.098,0.202 -0.884,1.825 -2.76,0.478c-0.462,-0.331 -0.626,-1.055 -0.54,-1.617c0.283,-1.86 2.009,-1.42 2.21,-1.368c0.141,0.036 0.092,0.095 1.263,1.301Z" style="fill:#bcc7d2;"/><path d="M554.062,463.419c-0.018,0.479 0.512,0.872 0.495,1.352c-0.043,1.162 -2.012,1.928 -2.914,1.011c-0.125,-0.127 -1.049,-1.065 -0.077,-2.233c0.491,-0.591 1.083,-0.622 1.19,-0.627c0.732,-0.038 0.568,0.536 1.306,0.497Z" style="fill:#c2d1db;"/><path d="M537.577,478.276c-0.213,0.378 0.032,0.91 -0.181,1.288c-0.195,0.346 -0.553,0.688 -0.949,0.72c-0.238,0.019 -2.289,0.187 -2.07,-2.145c0.087,-0.926 1.931,-1.548 2.661,-0.837c0.266,0.259 0.274,0.715 0.539,0.974Z" style="fill:#99aabd;"/><path d="M563.33,533.691c0.099,-0.771 -0.398,-0.705 -0.298,-1.485c0.012,-0.092 0.074,-0.58 0.614,-0.989c0.825,-0.625 2.504,0.077 2.611,1.031c0.023,0.204 0.225,2.004 -1.506,2.071c-0.517,0.02 -0.903,-0.648 -1.421,-0.628Z" style="fill:#b1b0b0;"/><path d="M583.17,490.131c-0.397,0.401 0.035,1.254 -0.362,1.655c-0.385,0.389 -1.064,0.397 -1.608,0.333c-1.401,-0.165 -1.721,-3.043 0.049,-3.268c0.644,-0.082 1.105,0.226 1.186,0.28c0.535,0.356 0.199,0.644 0.735,1.001Z" style="fill:#808fa4;"/><path d="M552.396,551.696c0.526,-0.392 0.146,-0.677 0.673,-1.07c0.078,-0.058 0.485,-0.362 1.178,-0.31c1.203,0.09 1.761,1.88 1.145,2.657c-0.125,0.158 -1.196,1.509 -2.518,0.175c-0.359,-0.362 -0.12,-1.09 -0.478,-1.452Z" style="fill:#aaa6a6;"/><path d="M559.875,481.283c-0.188,0.337 -0.033,0.798 -0.221,1.135c-0.097,0.175 -0.86,1.543 -2.458,0.442c-2.146,-1.478 -0.051,-2.725 0.144,-2.841c0.675,-0.401 1.223,-0.128 1.318,-0.081c0.849,0.424 0.371,0.923 1.217,1.345Z" style="fill:#8496a8;"/><path d="M144.963,580.199c-0.232,-1.499 -1.99,0.056 -2.223,-1.447c-0.033,-0.216 -0.308,-1.99 1.664,-2.163c0.869,-0.076 1.712,0.993 1.846,1.855c0.111,0.717 -1.398,1.038 -1.287,1.755Z" style="fill:#aaa29a;"/><path d="M635.097,401.701c0.153,2.835 0.306,2.848 0.164,3.046c-0.3,0.419 -1.091,0.63 -1.511,0.331c-1.035,-0.735 -0.656,-1.686 -0.599,-1.829c0.488,-1.223 1.456,-0.32 1.946,-1.549Z" style="fill:#496b99;"/><path d="M139.067,575.704c-0.117,0.73 1.738,0.783 1.621,1.513c-0.316,1.977 -1.282,0.081 -3.259,0.206l1.638,-1.719Z" style="fill:#c8c0b5;"/><path d="M531.535,540.844c-1.15,0.451 -0.119,1.447 -1.289,1.906c-0.113,0.044 -1.235,0.485 -1.205,-0.927c0,0 2.295,-0.9 2.495,-0.979Z" style="fill:#f8f4ec;"/></g></svg>